
<svg width="400" height="300" viewBox="0 0 400 300" fill="none" xmlns="http://www.w3.org/2000/svg">
  <rect width="400" height="300" fill="#F8FAFC"/>
  <circle cx="200" cy="150" r="80" fill="#E2E8F0"/>
  <circle cx="200" cy="150" r="60" fill="#CBD5E1"/>
  <g transform="translate(164, 114) scale(3)" style="color: #64748B">
    <path d="M12 22c1.1 0 2-.9 2-2h-4c0 1.1.9 2 2 2zm6-6v-5c0-3.07-1.63-5.64-4.5-6.32V4c0-.83-.67-1.5-1.5-1.5s-1.5.67-1.5 1.5v.68C7.64 5.36 6 7.92 6 11v5l-2 2v1h16v-1l-2-2zm-2 1H8v-6c0-2.48 1.51-4.5 4-4.5s4 2.02 4 4.5v6z" fill="currentColor"/>
  </g>
  <defs>
    <linearGradient id="paint0_linear" x1="200" y1="0" x2="200" y2="300" gradientUnits="userSpaceOnUse">
      <stop stop-color="#F1F5F9"/>
      <stop offset="1" stop-color="#E2E8F0"/>
    </linearGradient>
  </defs>
</svg>