
<svg width="400" height="300" viewBox="0 0 400 300" fill="none" xmlns="http://www.w3.org/2000/svg">
  <rect width="400" height="300" fill="#F8FAFC"/>
  <circle cx="200" cy="150" r="80" fill="#E2E8F0"/>
  <circle cx="200" cy="150" r="60" fill="#CBD5E1"/>
  <g transform="translate(164, 114) scale(3)" style="color: #64748B">
    <path d="M15.5 14h-.79l-.28-.27C15.41 12.59 16 11.11 16 9.5 16 5.91 13.09 3 9.5 3S3 5.91 3 9.5 5.91 16 9.5 16c1.61 0 3.09-.59 4.23-1.57l.27.28v.79l5 4.99L20.49 19l-4.99-5zm-6 0C7.01 14 5 11.99 5 9.5S7.01 5 9.5 5 14 7.01 14 9.5 11.99 14 9.5 14z" fill="currentColor"/>
  </g>
  <defs>
    <linearGradient id="paint0_linear" x1="200" y1="0" x2="200" y2="300" gradientUnits="userSpaceOnUse">
      <stop stop-color="#F1F5F9"/>
      <stop offset="1" stop-color="#E2E8F0"/>
    </linearGradient>
  </defs>
</svg>