
<svg width="400" height="300" viewBox="0 0 400 300" fill="none" xmlns="http://www.w3.org/2000/svg">
  <rect width="400" height="300" fill="#F8FAFC"/>
  <circle cx="200" cy="150" r="80" fill="#E2E8F0"/>
  <circle cx="200" cy="150" r="60" fill="#CBD5E1"/>
  <g transform="translate(164, 114) scale(3)" style="color: #64748B">
    <path d="M19 4h-1V2h-2v2H8V2H6v2H5c-1.11 0-1.99.9-1.99 2L3 20a2 2 0 0 0 2 2h14c1.1 0 2-.9 2-2V6c0-1.1-.9-2-2-2zm0 16H5V10h14v10zm0-12H5V6h14v2zm-7 5h5v5h-5z" fill="currentColor"/>
  </g>
  <defs>
    <linearGradient id="paint0_linear" x1="200" y1="0" x2="200" y2="300" gradientUnits="userSpaceOnUse">
      <stop stop-color="#F1F5F9"/>
      <stop offset="1" stop-color="#E2E8F0"/>
    </linearGradient>
  </defs>
</svg>