
<svg width="400" height="300" viewBox="0 0 400 300" fill="none" xmlns="http://www.w3.org/2000/svg">
  <rect width="400" height="300" fill="#F8FAFC"/>
  <circle cx="200" cy="150" r="80" fill="#E2E8F0"/>
  <circle cx="200" cy="150" r="60" fill="#CBD5E1"/>
  <g transform="translate(164, 114) scale(3)" style="color: #64748B">
    <path d="M21 18v1c0 1.1-.9 2-2 2H5c-1.11 0-2-.9-2-2V5c0-1.1.89-2 2-2h14c1.1 0 2 .9 2 2v1h-9c-1.11 0-2 .9-2 2v8c0 1.1.89 2 2 2h9zm-9-2h10V8H12v8zm4-2.5c-.83 0-1.5-.67-1.5-1.5s.67-1.5 1.5-1.5 1.5.67 1.5 1.5-.67 1.5-1.5 1.5z" fill="currentColor"/>
  </g>
  <defs>
    <linearGradient id="paint0_linear" x1="200" y1="0" x2="200" y2="300" gradientUnits="userSpaceOnUse">
      <stop stop-color="#F1F5F9"/>
      <stop offset="1" stop-color="#E2E8F0"/>
    </linearGradient>
  </defs>
</svg>