<?xml version="1.0" encoding="UTF-8"?>
<!--
  AutoRenta Bottom Navigation Icons - Ultra Premium Edition
  World-class icons inspired by Apple, Airbnb, Uber design systems

  Design Specifications:
  ├── Grid: 24x24 with 2px padding (20x20 safe area)
  ├── Stroke: 1.75px primary, 1.25px secondary
  ├── Corner radius: 2px minimum for organic feel
  ├── Visual weight: Balanced across all icons
  └── Optical corrections: Applied for perceived alignment

  Color System:
  ├── Primary: #0A0A0A (Rich Black)
  ├── Accent: #3B82F6 (Electric Blue 500)
  ├── Secondary: #60A5FA (Blue 400)
  ├── Tertiary: #93C5FD (Blue 300)
  ├── Highlight: #DBEAFE (Blue 100)
  └── Alert: #EF4444 (Red 500)

  Accessibility:
  ├── WCAG 2.1 AA compliant
  ├── Minimum touch target: 44x44px
  └── Clear visual hierarchy
-->
<svg xmlns="http://www.w3.org/2000/svg" style="display:none">

  <defs>
    <!-- Premium Gradients -->
    <linearGradient id="blueGradient" x1="0%" y1="0%" x2="100%" y2="100%">
      <stop offset="0%" stop-color="#3B82F6"/>
      <stop offset="100%" stop-color="#1D4ED8"/>
    </linearGradient>

    <linearGradient id="glassGradient" x1="0%" y1="0%" x2="0%" y2="100%">
      <stop offset="0%" stop-color="#93C5FD" stop-opacity="0.9"/>
      <stop offset="100%" stop-color="#60A5FA" stop-opacity="0.7"/>
    </linearGradient>

    <linearGradient id="metalGradient" x1="0%" y1="0%" x2="0%" y2="100%">
      <stop offset="0%" stop-color="#374151"/>
      <stop offset="50%" stop-color="#1F2937"/>
      <stop offset="100%" stop-color="#111827"/>
    </linearGradient>

    <linearGradient id="chromeGradient" x1="0%" y1="0%" x2="100%" y2="100%">
      <stop offset="0%" stop-color="#E5E7EB"/>
      <stop offset="50%" stop-color="#9CA3AF"/>
      <stop offset="100%" stop-color="#6B7280"/>
    </linearGradient>

    <!-- Glow Effects -->
    <filter id="softGlow" x="-50%" y="-50%" width="200%" height="200%">
      <feGaussianBlur in="SourceAlpha" stdDeviation="1.5" result="blur"/>
      <feFlood flood-color="#3B82F6" flood-opacity="0.3"/>
      <feComposite in2="blur" operator="in"/>
      <feMerge>
        <feMergeNode/>
        <feMergeNode in="SourceGraphic"/>
      </feMerge>
    </filter>

    <filter id="innerShadow" x="-50%" y="-50%" width="200%" height="200%">
      <feOffset dx="0" dy="1"/>
      <feGaussianBlur stdDeviation="0.5"/>
      <feComposite operator="out" in="SourceGraphic"/>
      <feColorMatrix values="0 0 0 0 0  0 0 0 0 0  0 0 0 0 0  0 0 0 0.15 0"/>
      <feBlend in="SourceGraphic"/>
    </filter>

    <!-- Premium Drop Shadow -->
    <filter id="premiumShadow" x="-30%" y="-30%" width="160%" height="160%">
      <feDropShadow dx="0" dy="2" stdDeviation="2" flood-color="#1E40AF" flood-opacity="0.25"/>
    </filter>

    <!-- Subtle Emboss Effect -->
    <filter id="emboss" x="-10%" y="-10%" width="120%" height="120%">
      <feOffset in="SourceAlpha" dx="0.5" dy="0.5" result="light"/>
      <feOffset in="SourceAlpha" dx="-0.5" dy="-0.5" result="dark"/>
      <feFlood flood-color="white" flood-opacity="0.3" result="lightColor"/>
      <feFlood flood-color="black" flood-opacity="0.2" result="darkColor"/>
      <feComposite in="lightColor" in2="light" operator="in" result="lightFinal"/>
      <feComposite in="darkColor" in2="dark" operator="in" result="darkFinal"/>
      <feMerge>
        <feMergeNode in="darkFinal"/>
        <feMergeNode in="lightFinal"/>
        <feMergeNode in="SourceGraphic"/>
      </feMerge>
    </filter>

    <!-- Glass Reflection -->
    <linearGradient id="glassReflection" x1="0%" y1="0%" x2="100%" y2="100%">
      <stop offset="0%" stop-color="#FFFFFF" stop-opacity="0.4"/>
      <stop offset="50%" stop-color="#FFFFFF" stop-opacity="0.1"/>
      <stop offset="100%" stop-color="#FFFFFF" stop-opacity="0"/>
    </linearGradient>

    <!-- Active State Pulse Gradient -->
    <radialGradient id="pulseGlow" cx="50%" cy="50%" r="50%">
      <stop offset="0%" stop-color="#60A5FA" stop-opacity="0.4"/>
      <stop offset="100%" stop-color="#3B82F6" stop-opacity="0"/>
    </radialGradient>

    <!-- Clip Paths -->
    <clipPath id="wheelClip">
      <circle cx="0" cy="0" r="2.2"/>
    </clipPath>
  </defs>

  <!-- ═══════════════════════════════════════════════════════════════════════
       NAV-CAR: Alquilar
       Premium sedan with realistic proportions, glass effect, chrome details
       ═══════════════════════════════════════════════════════════════════════ -->
  <symbol id="nav-car" viewBox="0 0 24 24">
    <title>Alquilar</title>

    <!-- Car Body - Main chassis with subtle gradient -->
    <path
      d="M2.5 13.5
         L4 9.5
         C4.3 8.6 5 8 6 8
         L18 8
         C19 8 19.7 8.6 20 9.5
         L21.5 13.5
         L21.5 16.5
         C21.5 17.3 20.8 18 20 18
         L4 18
         C3.2 18 2.5 17.3 2.5 16.5
         Z"
      fill="currentColor"
    />

    <!-- Roof line - Sporty profile -->
    <path
      d="M6.5 8
         L8 5.5
         C8.3 5 8.8 4.5 9.5 4.5
         L14.5 4.5
         C15.2 4.5 15.7 5 16 5.5
         L17.5 8"
      fill="currentColor"
    />

    <!-- Windows - Glass effect -->
    <path
      d="M7.5 8
         L8.8 5.8
         C9 5.4 9.3 5.2 9.8 5.2
         L11.5 5.2
         L11.5 8
         Z"
      fill="url(#glassGradient)"
    />
    <path
      d="M12.5 5.2
         L14.2 5.2
         C14.7 5.2 15 5.4 15.2 5.8
         L16.5 8
         L12.5 8
         Z"
      fill="url(#glassGradient)"
    />

    <!-- Window divider (B-pillar) -->
    <rect x="11.5" y="5.2" width="1" height="2.8" fill="currentColor"/>

    <!-- Front wheel well -->
    <path
      d="M4 15.5
         C4 15.5 4.5 13 7 13
         C9.5 13 10 15.5 10 15.5"
      fill="none"
      stroke="currentColor"
      stroke-width="0.5"
    />

    <!-- Rear wheel well -->
    <path
      d="M14 15.5
         C14 15.5 14.5 13 17 13
         C19.5 13 20 15.5 20 15.5"
      fill="none"
      stroke="currentColor"
      stroke-width="0.5"
    />

    <!-- Front wheel - Detailed alloy -->
    <g transform="translate(7, 17)">
      <circle cx="0" cy="0" r="2.8" fill="#1F2937"/>
      <circle cx="0" cy="0" r="2.3" fill="url(#metalGradient)"/>
      <circle cx="0" cy="0" r="1.6" fill="#374151"/>
      <!-- Alloy spokes -->
      <g stroke="#9CA3AF" stroke-width="0.4" fill="none">
        <line x1="0" y1="-1.4" x2="0" y2="1.4"/>
        <line x1="-1.2" y1="-0.7" x2="1.2" y2="0.7"/>
        <line x1="-1.2" y1="0.7" x2="1.2" y2="-0.7"/>
      </g>
      <!-- Center cap -->
      <circle cx="0" cy="0" r="0.6" fill="#3B82F6"/>
      <circle cx="0" cy="0" r="0.3" fill="#60A5FA"/>
    </g>

    <!-- Rear wheel - Detailed alloy -->
    <g transform="translate(17, 17)">
      <circle cx="0" cy="0" r="2.8" fill="#1F2937"/>
      <circle cx="0" cy="0" r="2.3" fill="url(#metalGradient)"/>
      <circle cx="0" cy="0" r="1.6" fill="#374151"/>
      <!-- Alloy spokes -->
      <g stroke="#9CA3AF" stroke-width="0.4" fill="none">
        <line x1="0" y1="-1.4" x2="0" y2="1.4"/>
        <line x1="-1.2" y1="-0.7" x2="1.2" y2="0.7"/>
        <line x1="-1.2" y1="0.7" x2="1.2" y2="-0.7"/>
      </g>
      <!-- Center cap -->
      <circle cx="0" cy="0" r="0.6" fill="#3B82F6"/>
      <circle cx="0" cy="0" r="0.3" fill="#60A5FA"/>
    </g>

    <!-- Headlights - LED style -->
    <g transform="translate(3.2, 11)">
      <rect x="0" y="0" width="2" height="1.2" rx="0.3" fill="#FBBF24"/>
      <rect x="0.2" y="0.2" width="0.8" height="0.8" rx="0.2" fill="#FEF3C7"/>
    </g>

    <!-- Taillights - Modern LED bar -->
    <g transform="translate(19, 11)">
      <rect x="0" y="0" width="1.8" height="1.2" rx="0.3" fill="#DC2626"/>
      <rect x="0.3" y="0.3" width="1.2" height="0.6" rx="0.15" fill="#FCA5A5" opacity="0.7"/>
    </g>

    <!-- Grille detail -->
    <rect x="10" y="10.5" width="4" height="0.8" rx="0.2" fill="#374151"/>
    <g stroke="#6B7280" stroke-width="0.3">
      <line x1="11" y1="10.5" x2="11" y2="11.3"/>
      <line x1="12" y1="10.5" x2="12" y2="11.3"/>
      <line x1="13" y1="10.5" x2="13" y2="11.3"/>
    </g>

    <!-- Door handle -->
    <rect x="11" y="12" width="2" height="0.4" rx="0.2" fill="url(#chromeGradient)"/>

    <!-- Side mirror hint -->
    <ellipse cx="5" cy="9" rx="0.8" ry="0.5" fill="currentColor"/>
  </symbol>

  <!-- ═══════════════════════════════════════════════════════════════════════
       NAV-CAR-ACTIVE: Alquilar (Estado Activo)
       Full blue theme with enhanced glow
       ═══════════════════════════════════════════════════════════════════════ -->
  <symbol id="nav-car-active" viewBox="0 0 24 24">
    <title>Alquilar</title>

    <!-- Car Body - Blue gradient -->
    <path
      d="M2.5 13.5
         L4 9.5
         C4.3 8.6 5 8 6 8
         L18 8
         C19 8 19.7 8.6 20 9.5
         L21.5 13.5
         L21.5 16.5
         C21.5 17.3 20.8 18 20 18
         L4 18
         C3.2 18 2.5 17.3 2.5 16.5
         Z"
      fill="url(#blueGradient)"
      filter="url(#softGlow)"
    />

    <!-- Roof -->
    <path
      d="M6.5 8
         L8 5.5
         C8.3 5 8.8 4.5 9.5 4.5
         L14.5 4.5
         C15.2 4.5 15.7 5 16 5.5
         L17.5 8"
      fill="url(#blueGradient)"
    />

    <!-- Windows -->
    <path
      d="M7.5 8
         L8.8 5.8
         C9 5.4 9.3 5.2 9.8 5.2
         L11.5 5.2
         L11.5 8
         Z"
      fill="#DBEAFE"
      opacity="0.9"
    />
    <path
      d="M12.5 5.2
         L14.2 5.2
         C14.7 5.2 15 5.4 15.2 5.8
         L16.5 8
         L12.5 8
         Z"
      fill="#DBEAFE"
      opacity="0.9"
    />

    <!-- Window divider -->
    <rect x="11.5" y="5.2" width="1" height="2.8" fill="#2563EB"/>

    <!-- Front wheel -->
    <g transform="translate(7, 17)">
      <circle cx="0" cy="0" r="2.8" fill="#1E40AF"/>
      <circle cx="0" cy="0" r="2.3" fill="#1E3A8A"/>
      <circle cx="0" cy="0" r="1.6" fill="#1E40AF"/>
      <g stroke="#60A5FA" stroke-width="0.4" fill="none">
        <line x1="0" y1="-1.4" x2="0" y2="1.4"/>
        <line x1="-1.2" y1="-0.7" x2="1.2" y2="0.7"/>
        <line x1="-1.2" y1="0.7" x2="1.2" y2="-0.7"/>
      </g>
      <circle cx="0" cy="0" r="0.6" fill="#FFFFFF"/>
      <circle cx="0" cy="0" r="0.3" fill="#DBEAFE"/>
    </g>

    <!-- Rear wheel -->
    <g transform="translate(17, 17)">
      <circle cx="0" cy="0" r="2.8" fill="#1E40AF"/>
      <circle cx="0" cy="0" r="2.3" fill="#1E3A8A"/>
      <circle cx="0" cy="0" r="1.6" fill="#1E40AF"/>
      <g stroke="#60A5FA" stroke-width="0.4" fill="none">
        <line x1="0" y1="-1.4" x2="0" y2="1.4"/>
        <line x1="-1.2" y1="-0.7" x2="1.2" y2="0.7"/>
        <line x1="-1.2" y1="0.7" x2="1.2" y2="-0.7"/>
      </g>
      <circle cx="0" cy="0" r="0.6" fill="#FFFFFF"/>
      <circle cx="0" cy="0" r="0.3" fill="#DBEAFE"/>
    </g>

    <!-- Lights -->
    <rect x="3.2" y="11" width="2" height="1.2" rx="0.3" fill="#FEF3C7"/>
    <rect x="19" y="11" width="1.8" height="1.2" rx="0.3" fill="#FCA5A5"/>

    <!-- Details -->
    <rect x="10" y="10.5" width="4" height="0.8" rx="0.2" fill="#1E40AF"/>
    <rect x="11" y="12" width="2" height="0.4" rx="0.2" fill="#DBEAFE"/>
  </symbol>

  <!-- ═══════════════════════════════════════════════════════════════════════
       NAV-PLUS: Publicar
       Floating action button style with depth and dimension
       ═══════════════════════════════════════════════════════════════════════ -->
  <symbol id="nav-plus" viewBox="0 0 24 24">
    <title>Publicar</title>

    <!-- Outer ring with gradient -->
    <circle
      cx="12"
      cy="12"
      r="10"
      fill="none"
      stroke="currentColor"
      stroke-width="2"
    />

    <!-- Inner subtle fill -->
    <circle
      cx="12"
      cy="12"
      r="8.5"
      fill="currentColor"
      opacity="0.05"
    />

    <!-- Plus sign - Vertical -->
    <rect
      x="11"
      y="6.5"
      width="2"
      height="11"
      rx="1"
      fill="currentColor"
    />

    <!-- Plus sign - Horizontal -->
    <rect
      x="6.5"
      y="11"
      width="11"
      height="2"
      rx="1"
      fill="currentColor"
    />

    <!-- Subtle highlight on plus -->
    <rect
      x="11.3"
      y="7"
      width="0.5"
      height="10"
      rx="0.25"
      fill="currentColor"
      opacity="0.3"
    />
  </symbol>

  <!-- NAV-PLUS-ACTIVE -->
  <symbol id="nav-plus-active" viewBox="0 0 24 24">
    <title>Publicar</title>

    <!-- Filled circle with gradient -->
    <circle
      cx="12"
      cy="12"
      r="10"
      fill="url(#blueGradient)"
      filter="url(#softGlow)"
    />

    <!-- Inner glow ring -->
    <circle
      cx="12"
      cy="12"
      r="8.5"
      fill="none"
      stroke="#60A5FA"
      stroke-width="0.5"
      opacity="0.5"
    />

    <!-- Plus sign - White -->
    <rect
      x="11"
      y="6.5"
      width="2"
      height="11"
      rx="1"
      fill="#FFFFFF"
    />
    <rect
      x="6.5"
      y="11"
      width="11"
      height="2"
      rx="1"
      fill="#FFFFFF"
    />
  </symbol>

  <!-- ═══════════════════════════════════════════════════════════════════════
       NAV-MESSAGE: Mensajes
       Modern chat bubble with realistic depth and typing indicator
       ═══════════════════════════════════════════════════════════════════════ -->
  <symbol id="nav-message" viewBox="0 0 24 24">
    <title>Mensajes</title>

    <!-- Main bubble shape -->
    <path
      d="M21 11.5
         C21 16.2 16.97 20 12 20
         C10.4 20 8.9 19.6 7.6 18.9
         L3 21
         L4.6 16.2
         C3.6 14.8 3 13.2 3 11.5
         C3 6.8 7.03 3 12 3
         C16.97 3 21 6.8 21 11.5
         Z"
      fill="none"
      stroke="currentColor"
      stroke-width="1.75"
      stroke-linecap="round"
      stroke-linejoin="round"
    />

    <!-- Inner shadow for depth -->
    <path
      d="M20 11.5
         C20 15.6 16.42 19 12 19
         C10.5 19 9.1 18.6 7.9 18
         L4.5 19.5
         L5.7 15.8
         C4.8 14.5 4.3 13 4.3 11.5
         C4.3 7.4 7.88 4 12.3 4"
      fill="currentColor"
      opacity="0.03"
    />

    <!-- Typing indicator dots -->
    <circle cx="8.5" cy="11.5" r="1.2" fill="currentColor" opacity="0.7"/>
    <circle cx="12" cy="11.5" r="1.2" fill="currentColor" opacity="0.85"/>
    <circle cx="15.5" cy="11.5" r="1.2" fill="currentColor"/>

    <!-- Dot highlights -->
    <circle cx="8.2" cy="11.2" r="0.3" fill="currentColor" opacity="0.3"/>
    <circle cx="11.7" cy="11.2" r="0.3" fill="currentColor" opacity="0.3"/>
    <circle cx="15.2" cy="11.2" r="0.3" fill="currentColor" opacity="0.3"/>
  </symbol>

  <!-- NAV-MESSAGE-ACTIVE -->
  <symbol id="nav-message-active" viewBox="0 0 24 24">
    <title>Mensajes</title>

    <!-- Filled bubble -->
    <path
      d="M21 11.5
         C21 16.2 16.97 20 12 20
         C10.4 20 8.9 19.6 7.6 18.9
         L3 21
         L4.6 16.2
         C3.6 14.8 3 13.2 3 11.5
         C3 6.8 7.03 3 12 3
         C16.97 3 21 6.8 21 11.5
         Z"
      fill="url(#blueGradient)"
      filter="url(#softGlow)"
    />

    <!-- Inner highlight -->
    <path
      d="M19 10.5
         C19 7.8 15.87 5.5 12 5.5
         C8.13 5.5 5 7.8 5 10.5"
      fill="none"
      stroke="#93C5FD"
      stroke-width="0.5"
      opacity="0.5"
    />

    <!-- White dots -->
    <circle cx="8.5" cy="11.5" r="1.2" fill="#FFFFFF" opacity="0.8"/>
    <circle cx="12" cy="11.5" r="1.2" fill="#FFFFFF" opacity="0.9"/>
    <circle cx="15.5" cy="11.5" r="1.2" fill="#FFFFFF"/>
  </symbol>

  <!-- ═══════════════════════════════════════════════════════════════════════
       NAV-CALENDAR: Reservas
       Modern calendar with paper texture feel and date highlight
       ═══════════════════════════════════════════════════════════════════════ -->
  <symbol id="nav-calendar" viewBox="0 0 24 24">
    <title>Reservas</title>

    <!-- Calendar base -->
    <rect
      x="3"
      y="5"
      width="18"
      height="17"
      rx="2.5"
      fill="none"
      stroke="currentColor"
      stroke-width="1.75"
    />

    <!-- Header bar -->
    <path
      d="M3 9.5 L21 9.5"
      stroke="currentColor"
      stroke-width="1.75"
    />

    <!-- Calendar hooks -->
    <g stroke="currentColor" stroke-width="2" stroke-linecap="round">
      <line x1="8" y1="3" x2="8" y2="7"/>
      <line x1="16" y1="3" x2="16" y2="7"/>
    </g>

    <!-- Hook rings (detail) -->
    <circle cx="8" cy="5" r="0.8" fill="none" stroke="currentColor" stroke-width="0.5" opacity="0.5"/>
    <circle cx="16" cy="5" r="0.8" fill="none" stroke="currentColor" stroke-width="0.5" opacity="0.5"/>

    <!-- Date grid -->
    <g fill="currentColor" opacity="0.4">
      <!-- Row 1 -->
      <circle cx="7" cy="12.5" r="0.8"/>
      <circle cx="10" cy="12.5" r="0.8"/>
      <circle cx="13" cy="12.5" r="0.8"/>
      <circle cx="16" cy="12.5" r="0.8"/>
      <!-- Row 2 -->
      <circle cx="7" cy="15.5" r="0.8"/>
      <circle cx="16" cy="15.5" r="0.8"/>
      <!-- Row 3 -->
      <circle cx="7" cy="18.5" r="0.8"/>
      <circle cx="10" cy="18.5" r="0.8"/>
    </g>

    <!-- Selected date highlight -->
    <rect
      x="9"
      y="14"
      width="5"
      height="5"
      rx="1.2"
      fill="currentColor"
    />

    <!-- Date number on selected -->
    <text
      x="11.5"
      y="17.8"
      font-family="system-ui, -apple-system, sans-serif"
      font-size="4"
      font-weight="600"
      fill="white"
      text-anchor="middle"
    >15</text>
  </symbol>

  <!-- NAV-CALENDAR-ACTIVE -->
  <symbol id="nav-calendar-active" viewBox="0 0 24 24">
    <title>Reservas</title>

    <!-- Calendar base - filled -->
    <rect
      x="3"
      y="5"
      width="18"
      height="17"
      rx="2.5"
      fill="url(#blueGradient)"
      filter="url(#softGlow)"
    />

    <!-- Header highlight -->
    <rect
      x="3"
      y="5"
      width="18"
      height="4.5"
      rx="2.5"
      fill="#1E40AF"
    />
    <rect
      x="3"
      y="7"
      width="18"
      height="2.5"
      fill="#1E40AF"
    />

    <!-- Calendar hooks - white -->
    <g stroke="#FFFFFF" stroke-width="2" stroke-linecap="round">
      <line x1="8" y1="3" x2="8" y2="7"/>
      <line x1="16" y1="3" x2="16" y2="7"/>
    </g>

    <!-- Date grid - light -->
    <g fill="#DBEAFE" opacity="0.6">
      <circle cx="7" cy="12.5" r="0.8"/>
      <circle cx="10" cy="12.5" r="0.8"/>
      <circle cx="13" cy="12.5" r="0.8"/>
      <circle cx="16" cy="12.5" r="0.8"/>
      <circle cx="7" cy="15.5" r="0.8"/>
      <circle cx="16" cy="15.5" r="0.8"/>
      <circle cx="7" cy="18.5" r="0.8"/>
      <circle cx="10" cy="18.5" r="0.8"/>
    </g>

    <!-- Selected date - white -->
    <rect
      x="9"
      y="14"
      width="5"
      height="5"
      rx="1.2"
      fill="#FFFFFF"
    />
    <text
      x="11.5"
      y="17.8"
      font-family="system-ui, -apple-system, sans-serif"
      font-size="4"
      font-weight="600"
      fill="#3B82F6"
      text-anchor="middle"
    >15</text>
  </symbol>

  <!-- ═══════════════════════════════════════════════════════════════════════
       NAV-MENU: Menu
       Modern bento grid with depth and dimension
       ═══════════════════════════════════════════════════════════════════════ -->
  <symbol id="nav-menu" viewBox="0 0 24 24">
    <title>Menu</title>

    <!-- Grid cells with subtle 3D effect -->
    <!-- Row 1 -->
    <rect x="3" y="3" width="5" height="5" rx="1.5" fill="currentColor"/>
    <rect x="3.3" y="3.3" width="2" height="2" rx="0.5" fill="currentColor" opacity="0.3"/>

    <rect x="9.5" y="3" width="5" height="5" rx="1.5" fill="currentColor" opacity="0.7"/>
    <rect x="9.8" y="3.3" width="2" height="2" rx="0.5" fill="currentColor" opacity="0.2"/>

    <rect x="16" y="3" width="5" height="5" rx="1.5" fill="currentColor"/>
    <rect x="16.3" y="3.3" width="2" height="2" rx="0.5" fill="currentColor" opacity="0.3"/>

    <!-- Row 2 -->
    <rect x="3" y="9.5" width="5" height="5" rx="1.5" fill="currentColor" opacity="0.7"/>
    <rect x="3.3" y="9.8" width="2" height="2" rx="0.5" fill="currentColor" opacity="0.2"/>

    <rect x="9.5" y="9.5" width="5" height="5" rx="1.5" fill="currentColor"/>
    <rect x="9.8" y="9.8" width="2" height="2" rx="0.5" fill="currentColor" opacity="0.3"/>

    <rect x="16" y="9.5" width="5" height="5" rx="1.5" fill="currentColor" opacity="0.7"/>
    <rect x="16.3" y="9.8" width="2" height="2" rx="0.5" fill="currentColor" opacity="0.2"/>

    <!-- Row 3 -->
    <rect x="3" y="16" width="5" height="5" rx="1.5" fill="currentColor"/>
    <rect x="3.3" y="16.3" width="2" height="2" rx="0.5" fill="currentColor" opacity="0.3"/>

    <rect x="9.5" y="16" width="5" height="5" rx="1.5" fill="currentColor" opacity="0.7"/>
    <rect x="9.8" y="16.3" width="2" height="2" rx="0.5" fill="currentColor" opacity="0.2"/>

    <rect x="16" y="16" width="5" height="5" rx="1.5" fill="currentColor"/>
    <rect x="16.3" y="16.3" width="2" height="2" rx="0.5" fill="currentColor" opacity="0.3"/>
  </symbol>

  <!-- NAV-MENU-ACTIVE -->
  <symbol id="nav-menu-active" viewBox="0 0 24 24">
    <title>Menu</title>

    <!-- Row 1 -->
    <rect x="3" y="3" width="5" height="5" rx="1.5" fill="#3B82F6"/>
    <rect x="9.5" y="3" width="5" height="5" rx="1.5" fill="#60A5FA"/>
    <rect x="16" y="3" width="5" height="5" rx="1.5" fill="#3B82F6"/>

    <!-- Row 2 -->
    <rect x="3" y="9.5" width="5" height="5" rx="1.5" fill="#60A5FA"/>
    <rect x="9.5" y="9.5" width="5" height="5" rx="1.5" fill="#3B82F6" filter="url(#softGlow)"/>
    <rect x="16" y="9.5" width="5" height="5" rx="1.5" fill="#60A5FA"/>

    <!-- Row 3 -->
    <rect x="3" y="16" width="5" height="5" rx="1.5" fill="#3B82F6"/>
    <rect x="9.5" y="16" width="5" height="5" rx="1.5" fill="#60A5FA"/>
    <rect x="16" y="16" width="5" height="5" rx="1.5" fill="#3B82F6"/>

    <!-- Highlights -->
    <g opacity="0.4">
      <rect x="3.3" y="3.3" width="1.5" height="1.5" rx="0.4" fill="#FFFFFF"/>
      <rect x="9.8" y="9.8" width="1.5" height="1.5" rx="0.4" fill="#FFFFFF"/>
      <rect x="16.3" y="16.3" width="1.5" height="1.5" rx="0.4" fill="#FFFFFF"/>
    </g>
  </symbol>

  <!-- ═══════════════════════════════════════════════════════════════════════
       NAV-SEARCH: Explorar
       Magnifying glass inspired by Airbnb exploration icon
       ═══════════════════════════════════════════════════════════════════════ -->
  <symbol id="nav-search" viewBox="0 0 24 24">
    <title>Explorar</title>
    <circle
      cx="11"
      cy="11"
      r="7"
      fill="none"
      stroke="currentColor"
      stroke-width="2"
    />
    <line
      x1="16.5"
      y1="16.5"
      x2="21"
      y2="21"
      stroke="currentColor"
      stroke-width="2"
      stroke-linecap="round"
    />
  </symbol>

  <symbol id="nav-search-active" viewBox="0 0 24 24">
    <title>Explorar</title>
    <circle
      cx="11"
      cy="11"
      r="7"
      fill="url(#blueGradient)"
      filter="url(#softGlow)"
    />
    <circle
      cx="11"
      cy="11"
      r="5"
      fill="none"
      stroke="#DBEAFE"
      stroke-width="0.5"
      opacity="0.5"
    />
    <line
      x1="16.5"
      y1="16.5"
      x2="21"
      y2="21"
      stroke="url(#blueGradient)"
      stroke-width="2.5"
      stroke-linecap="round"
      filter="url(#softGlow)"
    />
  </symbol>

  <!-- ═══════════════════════════════════════════════════════════════════════
       NAV-HEART: Favoritos
       Heart icon inspired by Airbnb wishlists
       ═══════════════════════════════════════════════════════════════════════ -->
  <symbol id="nav-heart" viewBox="0 0 24 24">
    <title>Favoritos</title>
    <path
      d="M12 21.35l-1.45-1.32C5.4 15.36 2 12.28 2 8.5
         C2 5.42 4.42 3 7.5 3c1.74 0 3.41.81 4.5 2.09
         C13.09 3.81 14.76 3 16.5 3 19.58 3 22 5.42 22 8.5
         c0 3.78-3.4 6.86-8.55 11.54L12 21.35z"
      fill="none"
      stroke="currentColor"
      stroke-width="1.75"
      stroke-linejoin="round"
    />
  </symbol>

  <symbol id="nav-heart-active" viewBox="0 0 24 24">
    <title>Favoritos</title>
    <path
      d="M12 21.35l-1.45-1.32C5.4 15.36 2 12.28 2 8.5
         C2 5.42 4.42 3 7.5 3c1.74 0 3.41.81 4.5 2.09
         C13.09 3.81 14.76 3 16.5 3 19.58 3 22 5.42 22 8.5
         c0 3.78-3.4 6.86-8.55 11.54L12 21.35z"
      fill="url(#blueGradient)"
      filter="url(#softGlow)"
    />
    <path
      d="M9 9c0.5-1 1.5-1.5 2.5-1"
      stroke="#DBEAFE"
      stroke-width="1"
      stroke-linecap="round"
      opacity="0.6"
    />
  </symbol>

  <!-- ═══════════════════════════════════════════════════════════════════════
       NAV-CHAT: Mensajes
       Modern chat bubble similar to nav-message but renamed for clarity
       ═══════════════════════════════════════════════════════════════════════ -->
  <symbol id="nav-chat" viewBox="0 0 24 24">
    <title>Mensajes</title>
    <path
      d="M21 11.5
         C21 16.2 16.97 20 12 20
         C10.4 20 8.9 19.6 7.6 18.9
         L3 21
         L4.6 16.2
         C3.6 14.8 3 13.2 3 11.5
         C3 6.8 7.03 3 12 3
         C16.97 3 21 6.8 21 11.5
         Z"
      fill="none"
      stroke="currentColor"
      stroke-width="1.75"
      stroke-linecap="round"
      stroke-linejoin="round"
    />
    <circle cx="8.5" cy="11.5" r="1" fill="currentColor" opacity="0.7"/>
    <circle cx="12" cy="11.5" r="1" fill="currentColor" opacity="0.85"/>
    <circle cx="15.5" cy="11.5" r="1" fill="currentColor"/>
  </symbol>

  <symbol id="nav-chat-active" viewBox="0 0 24 24">
    <title>Mensajes</title>
    <path
      d="M21 11.5
         C21 16.2 16.97 20 12 20
         C10.4 20 8.9 19.6 7.6 18.9
         L3 21
         L4.6 16.2
         C3.6 14.8 3 13.2 3 11.5
         C3 6.8 7.03 3 12 3
         C16.97 3 21 6.8 21 11.5
         Z"
      fill="url(#blueGradient)"
      filter="url(#softGlow)"
    />
    <circle cx="8.5" cy="11.5" r="1" fill="#FFFFFF" opacity="0.8"/>
    <circle cx="12" cy="11.5" r="1" fill="#FFFFFF" opacity="0.9"/>
    <circle cx="15.5" cy="11.5" r="1" fill="#FFFFFF"/>
  </symbol>

  <!-- ═══════════════════════════════════════════════════════════════════════
       NAV-USER: Perfil
       User silhouette inspired by Airbnb profile icon
       ═══════════════════════════════════════════════════════════════════════ -->
  <symbol id="nav-user" viewBox="0 0 24 24">
    <title>Perfil</title>
    <!-- Head -->
    <circle
      cx="12"
      cy="8"
      r="4"
      fill="none"
      stroke="currentColor"
      stroke-width="1.75"
    />
    <!-- Body -->
    <path
      d="M4 21v-2c0-2.21 3.58-4 8-4s8 1.79 8 4v2"
      fill="none"
      stroke="currentColor"
      stroke-width="1.75"
      stroke-linecap="round"
    />
  </symbol>

  <symbol id="nav-user-active" viewBox="0 0 24 24">
    <title>Perfil</title>
    <!-- Head filled -->
    <circle
      cx="12"
      cy="8"
      r="4"
      fill="url(#blueGradient)"
      filter="url(#softGlow)"
    />
    <!-- Highlight on head -->
    <circle
      cx="10.5"
      cy="6.5"
      r="1"
      fill="#DBEAFE"
      opacity="0.5"
    />
    <!-- Body filled -->
    <path
      d="M4 21v-2c0-2.21 3.58-4 8-4s8 1.79 8 4v2"
      fill="url(#blueGradient)"
      filter="url(#softGlow)"
    />
  </symbol>

</svg>
