<?xml version="1.0" encoding="UTF-8"?>
<!--
  AutoRenta Earnings Page Icons
  Premium SVG icons for dashboard/earnings page

  Design Specifications:
  ├── Grid: 24x24 optical
  ├── Stroke: 1.75px primary
  ├── Style: Outlined with subtle fills
  └── Colors: currentColor (inherits from parent)
-->
<svg xmlns="http://www.w3.org/2000/svg" style="display:none">

  <!-- ═══════════════════════════════════════════════════════════════════════
       MONEY-BILL - 💵 Dollar Bill
       For "Ganancias" title and "Balance Disponible"
       ═══════════════════════════════════════════════════════════════════════ -->
  <symbol id="earnings-money-bill" viewBox="0 0 24 24">
    <title>Dinero</title>
    <!-- Bill outline -->
    <rect
      x="2"
      y="5"
      width="20"
      height="14"
      rx="2"
      fill="none"
      stroke="currentColor"
      stroke-width="1.75"
    />
    <!-- Inner subtle fill -->
    <rect x="3" y="6" width="18" height="12" rx="1" fill="currentColor" opacity="0.05"/>
    <!-- Center circle -->
    <circle
      cx="12"
      cy="12"
      r="3.5"
      fill="none"
      stroke="currentColor"
      stroke-width="1.5"
    />
    <!-- Dollar sign -->
    <path
      d="M12 9.5v5M10.5 10.5c0-.5.67-1 1.5-1s1.5.5 1.5 1-.67 1-1.5 1-1.5.5-1.5 1 .67 1 1.5 1 1.5-.5 1.5-1"
      fill="none"
      stroke="currentColor"
      stroke-width="1.25"
      stroke-linecap="round"
    />
    <!-- Corner decorations -->
    <circle cx="5" cy="8" r="1" fill="currentColor" opacity="0.2"/>
    <circle cx="19" cy="8" r="1" fill="currentColor" opacity="0.2"/>
    <circle cx="5" cy="16" r="1" fill="currentColor" opacity="0.2"/>
    <circle cx="19" cy="16" r="1" fill="currentColor" opacity="0.2"/>
  </symbol>

  <!-- ═══════════════════════════════════════════════════════════════════════
       MONEY-BAG - 💰 Money Bag
       For "Total Ganado" and "Ir a Wallet" button
       ═══════════════════════════════════════════════════════════════════════ -->
  <symbol id="earnings-money-bag" viewBox="0 0 24 24">
    <title>Bolsa de dinero</title>
    <!-- Bag body -->
    <path
      d="M6 10c0-1 1-2 2-3l1-2h6l1 2c1 1 2 2 2 3v8a2 2 0 0 1-2 2H8a2 2 0 0 1-2-2v-8z"
      fill="none"
      stroke="currentColor"
      stroke-width="1.75"
      stroke-linejoin="round"
    />
    <!-- Subtle fill -->
    <path
      d="M6 10c0-1 1-2 2-3l1-2h6l1 2c1 1 2 2 2 3v8a2 2 0 0 1-2 2H8a2 2 0 0 1-2-2v-8z"
      fill="currentColor"
      opacity="0.05"
    />
    <!-- Tie at top -->
    <path
      d="M9 5h6"
      stroke="currentColor"
      stroke-width="1.5"
      stroke-linecap="round"
    />
    <!-- Dollar sign -->
    <path
      d="M12 11v6M10 12.5c0-.83.9-1.5 2-1.5s2 .67 2 1.5-.9 1.5-2 1.5-2 .67-2 1.5.9 1.5 2 1.5"
      fill="none"
      stroke="currentColor"
      stroke-width="1.25"
      stroke-linecap="round"
    />
  </symbol>

  <!-- ═══════════════════════════════════════════════════════════════════════
       HOURGLASS - ⏳ Hourglass
       For "Balance Pendiente"
       ═══════════════════════════════════════════════════════════════════════ -->
  <symbol id="earnings-hourglass" viewBox="0 0 24 24">
    <title>Pendiente</title>
    <!-- Top frame -->
    <path
      d="M5 3h14"
      stroke="currentColor"
      stroke-width="2"
      stroke-linecap="round"
    />
    <!-- Bottom frame -->
    <path
      d="M5 21h14"
      stroke="currentColor"
      stroke-width="2"
      stroke-linecap="round"
    />
    <!-- Hourglass body -->
    <path
      d="M6 3v3c0 2.5 2 4 6 6-4 2-6 3.5-6 6v3M18 3v3c0 2.5-2 4-6 6 4 2 6 3.5 6 6v3"
      fill="none"
      stroke="currentColor"
      stroke-width="1.75"
      stroke-linejoin="round"
    />
    <!-- Glass fill effect -->
    <path
      d="M7 4v2c0 2 1.5 3 5 5-3.5 2-5 3-5 5v2h10v-2c0-2-1.5-3-5-5 3.5-2 5-3 5-5V4"
      fill="currentColor"
      opacity="0.05"
    />
    <!-- Sand (top) -->
    <path
      d="M9 5h6v1l-3 2.5-3-2.5V5z"
      fill="currentColor"
      opacity="0.3"
    />
    <!-- Sand (bottom) -->
    <path
      d="M9 19h6v-2l-3-2-3 2v2z"
      fill="currentColor"
      opacity="0.2"
    />
  </symbol>

  <!-- ═══════════════════════════════════════════════════════════════════════
       BAR-CHART - 📊 Bar Chart
       For "Ganancias Mensuales" and "Historial de Payouts"
       ═══════════════════════════════════════════════════════════════════════ -->
  <symbol id="earnings-bar-chart" viewBox="0 0 24 24">
    <title>Gráfico de barras</title>
    <!-- Base line -->
    <path
      d="M3 21h18"
      stroke="currentColor"
      stroke-width="1.75"
      stroke-linecap="round"
    />
    <!-- Bar 1 (left) -->
    <rect
      x="5"
      y="13"
      width="3"
      height="8"
      rx="0.5"
      fill="none"
      stroke="currentColor"
      stroke-width="1.5"
    />
    <rect x="5.5" y="13.5" width="2" height="7" rx="0.25" fill="currentColor" opacity="0.1"/>
    <!-- Bar 2 (center) -->
    <rect
      x="10.5"
      y="7"
      width="3"
      height="14"
      rx="0.5"
      fill="none"
      stroke="currentColor"
      stroke-width="1.5"
    />
    <rect x="11" y="7.5" width="2" height="13" rx="0.25" fill="currentColor" opacity="0.15"/>
    <!-- Bar 3 (right) -->
    <rect
      x="16"
      y="3"
      width="3"
      height="18"
      rx="0.5"
      fill="none"
      stroke="currentColor"
      stroke-width="1.5"
    />
    <rect x="16.5" y="3.5" width="2" height="17" rx="0.25" fill="currentColor" opacity="0.2"/>
  </symbol>

  <!-- ═══════════════════════════════════════════════════════════════════════
       CHART-DOWN - 📉 Chart Decreasing
       For "Depreciación Anual del Auto"
       ═══════════════════════════════════════════════════════════════════════ -->
  <symbol id="earnings-chart-down" viewBox="0 0 24 24">
    <title>Gráfico descendente</title>
    <!-- Axes -->
    <path
      d="M3 3v18h18"
      fill="none"
      stroke="currentColor"
      stroke-width="1.75"
      stroke-linecap="round"
      stroke-linejoin="round"
    />
    <!-- Downward trend line -->
    <path
      d="M6 7l4 4 4-2 6 8"
      fill="none"
      stroke="currentColor"
      stroke-width="2"
      stroke-linecap="round"
      stroke-linejoin="round"
    />
    <!-- Area fill -->
    <path
      d="M6 7l4 4 4-2 6 8v4H6V7z"
      fill="currentColor"
      opacity="0.08"
    />
    <!-- Arrow down -->
    <path
      d="M18 13l2 4m0 0l-2.5-1m2.5 1l-1-2.5"
      stroke="currentColor"
      stroke-width="1.5"
      stroke-linecap="round"
      stroke-linejoin="round"
    />
  </symbol>

  <!-- ═══════════════════════════════════════════════════════════════════════
       CHART-UP - 📈 Chart Increasing
       For "Ingresos Proyectados" and "Dashboard"
       ═══════════════════════════════════════════════════════════════════════ -->
  <symbol id="earnings-chart-up" viewBox="0 0 24 24">
    <title>Gráfico ascendente</title>
    <!-- Axes -->
    <path
      d="M3 3v18h18"
      fill="none"
      stroke="currentColor"
      stroke-width="1.75"
      stroke-linecap="round"
      stroke-linejoin="round"
    />
    <!-- Upward trend line -->
    <path
      d="M6 17l4-4 4 2 6-8"
      fill="none"
      stroke="currentColor"
      stroke-width="2"
      stroke-linecap="round"
      stroke-linejoin="round"
    />
    <!-- Area fill -->
    <path
      d="M6 17l4-4 4 2 6-8v14H6v-4z"
      fill="currentColor"
      opacity="0.08"
    />
    <!-- Arrow up -->
    <path
      d="M17 10l3-3m0 0l-2.5 1m2.5-1l-1 2.5"
      stroke="currentColor"
      stroke-width="1.5"
      stroke-linecap="round"
      stroke-linejoin="round"
    />
  </symbol>

  <!-- ═══════════════════════════════════════════════════════════════════════
       TARGET - 🎯 Target/Bullseye
       For "Análisis de Breakeven"
       ═══════════════════════════════════════════════════════════════════════ -->
  <symbol id="earnings-target" viewBox="0 0 24 24">
    <title>Objetivo</title>
    <!-- Outer ring -->
    <circle
      cx="12"
      cy="12"
      r="10"
      fill="none"
      stroke="currentColor"
      stroke-width="1.75"
    />
    <!-- Middle ring -->
    <circle
      cx="12"
      cy="12"
      r="6"
      fill="none"
      stroke="currentColor"
      stroke-width="1.5"
    />
    <!-- Inner ring -->
    <circle
      cx="12"
      cy="12"
      r="2"
      fill="currentColor"
    />
    <!-- Subtle fills -->
    <circle cx="12" cy="12" r="9" fill="currentColor" opacity="0.03"/>
    <circle cx="12" cy="12" r="5" fill="currentColor" opacity="0.06"/>
  </symbol>

  <!-- ═══════════════════════════════════════════════════════════════════════
       LIGHTBULB - 💡 Light Bulb
       For "¿Qué significa esto?" explanation
       ═══════════════════════════════════════════════════════════════════════ -->
  <symbol id="earnings-lightbulb" viewBox="0 0 24 24">
    <title>Información</title>
    <!-- Bulb shape -->
    <path
      d="M9 21h6M12 3a6 6 0 0 0-4 10.5V17a1 1 0 0 0 1 1h6a1 1 0 0 0 1-1v-3.5A6 6 0 0 0 12 3z"
      fill="none"
      stroke="currentColor"
      stroke-width="1.75"
      stroke-linecap="round"
      stroke-linejoin="round"
    />
    <!-- Bulb fill -->
    <path
      d="M12 3a6 6 0 0 0-4 10.5V17a1 1 0 0 0 1 1h6a1 1 0 0 0 1-1v-3.5A6 6 0 0 0 12 3z"
      fill="currentColor"
      opacity="0.08"
    />
    <!-- Filament lines -->
    <path
      d="M10 17h4M10 19h4"
      stroke="currentColor"
      stroke-width="1"
      stroke-linecap="round"
    />
    <!-- Light rays -->
    <path
      d="M12 1v1M4.22 4.22l.7.7M1 12h1M4.22 19.78l.7-.7M22 12h1M19.78 4.22l-.7.7M19.78 19.78l-.7-.7"
      stroke="currentColor"
      stroke-width="1.25"
      stroke-linecap="round"
      opacity="0.5"
    />
  </symbol>

  <!-- ═══════════════════════════════════════════════════════════════════════
       LIGHTNING - ⚡ Lightning Bolt
       For "Acciones Rápidas"
       ═══════════════════════════════════════════════════════════════════════ -->
  <symbol id="earnings-lightning" viewBox="0 0 24 24">
    <title>Acciones rápidas</title>
    <!-- Lightning bolt -->
    <path
      d="M13 2L4 14h7l-1 8 9-12h-7l1-8z"
      fill="none"
      stroke="currentColor"
      stroke-width="1.75"
      stroke-linecap="round"
      stroke-linejoin="round"
    />
    <!-- Fill -->
    <path
      d="M13 2L4 14h7l-1 8 9-12h-7l1-8z"
      fill="currentColor"
      opacity="0.1"
    />
  </symbol>

  <!-- ═══════════════════════════════════════════════════════════════════════
       MONEY-SEND - 💸 Money with Wings / Send Money
       For "Retirar Dinero"
       ═══════════════════════════════════════════════════════════════════════ -->
  <symbol id="earnings-money-send" viewBox="0 0 24 24">
    <title>Enviar dinero</title>
    <!-- Bill -->
    <rect
      x="2"
      y="7"
      width="14"
      height="10"
      rx="1.5"
      fill="none"
      stroke="currentColor"
      stroke-width="1.75"
    />
    <rect x="3" y="8" width="12" height="8" rx="1" fill="currentColor" opacity="0.05"/>
    <!-- Dollar sign on bill -->
    <circle cx="9" cy="12" r="2.5" fill="none" stroke="currentColor" stroke-width="1.25"/>
    <path
      d="M9 10.5v3M8 11c0-.3.45-.5 1-.5s1 .2 1 .5-.45.5-1 .5-.9.2-1 .5.45.5 1 .5"
      fill="none"
      stroke="currentColor"
      stroke-width="1"
      stroke-linecap="round"
    />
    <!-- Arrow/Wing effect -->
    <path
      d="M17 8l5-3v6l-5-3z"
      fill="currentColor"
      opacity="0.3"
    />
    <path
      d="M17 16l5 3v-6l-5 3z"
      fill="currentColor"
      opacity="0.3"
    />
    <path
      d="M18 10h3M18 12h4M18 14h3"
      stroke="currentColor"
      stroke-width="1.5"
      stroke-linecap="round"
    />
  </symbol>

  <!-- ═══════════════════════════════════════════════════════════════════════
       CLIPBOARD - 📋 Clipboard/List
       For "Historial Wallet"
       ═══════════════════════════════════════════════════════════════════════ -->
  <symbol id="earnings-clipboard" viewBox="0 0 24 24">
    <title>Historial</title>
    <!-- Clipboard board -->
    <path
      d="M16 4h2a2 2 0 0 1 2 2v14a2 2 0 0 1-2 2H6a2 2 0 0 1-2-2V6a2 2 0 0 1 2-2h2"
      fill="none"
      stroke="currentColor"
      stroke-width="1.75"
    />
    <!-- Fill -->
    <path
      d="M16 4h2a2 2 0 0 1 2 2v14a2 2 0 0 1-2 2H6a2 2 0 0 1-2-2V6a2 2 0 0 1 2-2h2"
      fill="currentColor"
      opacity="0.05"
    />
    <!-- Clip -->
    <rect
      x="8"
      y="2"
      width="8"
      height="4"
      rx="1"
      fill="none"
      stroke="currentColor"
      stroke-width="1.75"
    />
    <rect x="8.5" y="2.5" width="7" height="3" rx="0.5" fill="currentColor" opacity="0.1"/>
    <!-- List lines -->
    <path
      d="M8 10h8M8 14h8M8 18h5"
      stroke="currentColor"
      stroke-width="1.5"
      stroke-linecap="round"
    />
  </symbol>

  <!-- ═══════════════════════════════════════════════════════════════════════
       WALLET - 💰 Wallet Icon
       Alternative for wallet-related actions
       ═══════════════════════════════════════════════════════════════════════ -->
  <symbol id="earnings-wallet" viewBox="0 0 24 24">
    <title>Billetera</title>
    <!-- Wallet body -->
    <rect
      x="2"
      y="5"
      width="20"
      height="14"
      rx="2"
      fill="none"
      stroke="currentColor"
      stroke-width="1.75"
    />
    <rect x="3" y="6" width="18" height="12" rx="1" fill="currentColor" opacity="0.05"/>
    <!-- Flap -->
    <path
      d="M22 10h-6a2 2 0 0 0 0 4h6"
      fill="none"
      stroke="currentColor"
      stroke-width="1.75"
    />
    <!-- Coin slot -->
    <circle cx="17" cy="12" r="1" fill="currentColor"/>
    <!-- Top fold line -->
    <path
      d="M6 5V4a2 2 0 0 1 2-2h8a2 2 0 0 1 2 2v1"
      fill="none"
      stroke="currentColor"
      stroke-width="1.5"
      opacity="0.5"
    />
  </symbol>

</svg>
