<?xml version="1.0" encoding="UTF-8"?>
<!--
  AutoRenta Header Icons - Ultra Premium Edition
  World-class icons for desktop/mobile header navigation

  Design Specifications:
  ├── Grid: 24x24 optical with 2px safe area
  ├── Stroke: 1.75px primary, 1.25px secondary
  ├── Style: Outlined with subtle fills for depth
  └── Visual balance: Optimized for 20-24px display

  Color System:
  ├── Primary: currentColor (inherits from parent)
  ├── Accent: #3B82F6 (Electric Blue)
  ├── Alert: #EF4444 (Red for notifications)
  └── Neutral: #6B7280 (Gray)
-->
<svg xmlns="http://www.w3.org/2000/svg" style="display:none">

  <defs>
    <!-- Premium Gradients -->
    <linearGradient id="headerBlueGrad" x1="0%" y1="0%" x2="100%" y2="100%">
      <stop offset="0%" stop-color="#3B82F6"/>
      <stop offset="100%" stop-color="#1D4ED8"/>
    </linearGradient>

    <linearGradient id="headerGlassGrad" x1="0%" y1="0%" x2="0%" y2="100%">
      <stop offset="0%" stop-color="#FFFFFF" stop-opacity="0.3"/>
      <stop offset="100%" stop-color="#FFFFFF" stop-opacity="0"/>
    </linearGradient>

    <linearGradient id="headerMetalGrad" x1="0%" y1="0%" x2="0%" y2="100%">
      <stop offset="0%" stop-color="#F3F4F6"/>
      <stop offset="50%" stop-color="#D1D5DB"/>
      <stop offset="100%" stop-color="#9CA3AF"/>
    </linearGradient>

    <!-- Alert/Notification Gradient -->
    <linearGradient id="alertGrad" x1="0%" y1="0%" x2="100%" y2="100%">
      <stop offset="0%" stop-color="#F87171"/>
      <stop offset="100%" stop-color="#DC2626"/>
    </linearGradient>

    <!-- RADIOACTIVE YELLOW Gradients -->
    <linearGradient id="radioactiveYellow" x1="0%" y1="0%" x2="100%" y2="100%">
      <stop offset="0%" stop-color="#FDE047"/>
      <stop offset="50%" stop-color="#FACC15"/>
      <stop offset="100%" stop-color="#EAB308"/>
    </linearGradient>

    <linearGradient id="radioactiveGlow" x1="0%" y1="0%" x2="0%" y2="100%">
      <stop offset="0%" stop-color="#FEF9C3"/>
      <stop offset="100%" stop-color="#FDE047"/>
    </linearGradient>

    <radialGradient id="radioactivePulse" cx="50%" cy="50%" r="50%">
      <stop offset="0%" stop-color="#FEF08A" stop-opacity="0.8"/>
      <stop offset="70%" stop-color="#FACC15" stop-opacity="0.4"/>
      <stop offset="100%" stop-color="#CA8A04" stop-opacity="0"/>
    </radialGradient>

    <!-- Radioactive Yellow Glow Filter -->
    <filter id="yellowGlow" x="-50%" y="-50%" width="200%" height="200%">
      <feGaussianBlur in="SourceAlpha" stdDeviation="2" result="blur"/>
      <feFlood flood-color="#FACC15" flood-opacity="0.6"/>
      <feComposite in2="blur" operator="in"/>
      <feMerge>
        <feMergeNode/>
        <feMergeNode in="SourceGraphic"/>
      </feMerge>
    </filter>

    <filter id="yellowNeon" x="-60%" y="-60%" width="220%" height="220%">
      <feGaussianBlur in="SourceGraphic" stdDeviation="1.5" result="blur1"/>
      <feGaussianBlur in="SourceGraphic" stdDeviation="3" result="blur2"/>
      <feMerge>
        <feMergeNode in="blur2"/>
        <feMergeNode in="blur1"/>
        <feMergeNode in="SourceGraphic"/>
      </feMerge>
    </filter>

    <!-- Filters -->
    <filter id="headerGlow" x="-30%" y="-30%" width="160%" height="160%">
      <feGaussianBlur in="SourceAlpha" stdDeviation="1" result="blur"/>
      <feFlood flood-color="#3B82F6" flood-opacity="0.2"/>
      <feComposite in2="blur" operator="in"/>
      <feMerge>
        <feMergeNode/>
        <feMergeNode in="SourceGraphic"/>
      </feMerge>
    </filter>

    <filter id="headerShadow" x="-20%" y="-20%" width="140%" height="140%">
      <feDropShadow dx="0" dy="1" stdDeviation="0.5" flood-color="#000" flood-opacity="0.1"/>
    </filter>

    <filter id="innerShine" x="-10%" y="-10%" width="120%" height="120%">
      <feOffset in="SourceAlpha" dx="0.5" dy="0.5" result="light"/>
      <feFlood flood-color="white" flood-opacity="0.2" result="lightColor"/>
      <feComposite in="lightColor" in2="light" operator="in" result="lightFinal"/>
      <feMerge>
        <feMergeNode in="lightFinal"/>
        <feMergeNode in="SourceGraphic"/>
      </feMerge>
    </filter>
  </defs>

  <!-- ═══════════════════════════════════════════════════════════════════════
       SEARCH - Buscar autos
       Premium magnifying glass with glass lens effect
       ═══════════════════════════════════════════════════════════════════════ -->
  <symbol id="header-search" viewBox="0 0 24 24">
    <title>Buscar</title>
    <!-- Lens body -->
    <circle
      cx="11"
      cy="11"
      r="7"
      fill="none"
      stroke="currentColor"
      stroke-width="1.75"
    />
    <!-- Glass effect inside lens -->
    <circle cx="11" cy="11" r="5.5" fill="currentColor" opacity="0.04"/>
    <!-- Glass reflection -->
    <ellipse
      cx="8.5"
      cy="8.5"
      rx="2"
      ry="1.5"
      fill="currentColor"
      opacity="0.12"
      transform="rotate(-45 8.5 8.5)"
    />
    <!-- Handle -->
    <line
      x1="16.5"
      y1="16.5"
      x2="21"
      y2="21"
      stroke="currentColor"
      stroke-width="2"
      stroke-linecap="round"
    />
    <!-- Handle grip detail -->
    <line
      x1="17"
      y1="17"
      x2="19"
      y2="19"
      stroke="currentColor"
      stroke-width="0.5"
      opacity="0.3"
    />
  </symbol>

  <!-- SEARCH ACTIVE -->
  <symbol id="header-search-active" viewBox="0 0 24 24">
    <title>Buscar</title>
    <circle
      cx="11"
      cy="11"
      r="7"
      fill="url(#headerBlueGrad)"
      filter="url(#headerGlow)"
    />
    <circle cx="11" cy="11" r="5" fill="none" stroke="#DBEAFE" stroke-width="0.5" opacity="0.5"/>
    <ellipse
      cx="8.5"
      cy="8.5"
      rx="2"
      ry="1.5"
      fill="white"
      opacity="0.3"
      transform="rotate(-45 8.5 8.5)"
    />
    <line
      x1="16.5"
      y1="16.5"
      x2="21"
      y2="21"
      stroke="#3B82F6"
      stroke-width="2"
      stroke-linecap="round"
    />
  </symbol>

  <!-- ═══════════════════════════════════════════════════════════════════════
       HELP - Centro de ayuda
       Question mark with premium circle
       ═══════════════════════════════════════════════════════════════════════ -->
  <symbol id="header-help" viewBox="0 0 24 24">
    <title>Ayuda</title>
    <!-- Outer circle -->
    <circle
      cx="12"
      cy="12"
      r="10"
      fill="none"
      stroke="currentColor"
      stroke-width="1.75"
    />
    <!-- Inner glow -->
    <circle cx="12" cy="12" r="8.5" fill="currentColor" opacity="0.04"/>
    <!-- Question mark curve -->
    <path
      d="M9.09 9a3 3 0 0 1 5.83 1c0 2-3 3-3 3"
      fill="none"
      stroke="currentColor"
      stroke-width="1.75"
      stroke-linecap="round"
      stroke-linejoin="round"
    />
    <!-- Dot -->
    <circle cx="12" cy="17" r="1.1" fill="currentColor"/>
    <!-- Subtle shine -->
    <path
      d="M8 7c0-1 .5-2 1.5-2.5"
      fill="none"
      stroke="currentColor"
      stroke-width="0.5"
      opacity="0.15"
    />
  </symbol>

  <!-- HELP ACTIVE -->
  <symbol id="header-help-active" viewBox="0 0 24 24">
    <title>Ayuda</title>
    <circle
      cx="12"
      cy="12"
      r="10"
      fill="url(#headerBlueGrad)"
      filter="url(#headerGlow)"
    />
    <path
      d="M9.09 9a3 3 0 0 1 5.83 1c0 2-3 3-3 3"
      fill="none"
      stroke="white"
      stroke-width="1.75"
      stroke-linecap="round"
      stroke-linejoin="round"
    />
    <circle cx="12" cy="17" r="1.1" fill="white"/>
  </symbol>

  <!-- ═══════════════════════════════════════════════════════════════════════
       BELL - Notificaciones
       Premium bell with notification badge support
       ═══════════════════════════════════════════════════════════════════════ -->
  <symbol id="header-bell" viewBox="0 0 24 24">
    <title>Notificaciones</title>
    <!-- Bell body -->
    <path
      d="M18 8A6 6 0 0 0 6 8c0 7-3 9-3 9h18s-3-2-3-9"
      fill="none"
      stroke="currentColor"
      stroke-width="1.75"
      stroke-linecap="round"
      stroke-linejoin="round"
    />
    <!-- Inner depth -->
    <path
      d="M18 8A6 6 0 0 0 6 8c0 7-3 9-3 9h18s-3-2-3-9"
      fill="currentColor"
      opacity="0.05"
    />
    <!-- Clapper -->
    <path
      d="M13.73 21a2 2 0 0 1-3.46 0"
      stroke="currentColor"
      stroke-width="1.75"
      stroke-linecap="round"
    />
    <!-- Inner shine -->
    <path
      d="M8 8c0-2.2 1.8-4 4-4"
      fill="none"
      stroke="currentColor"
      stroke-width="0.5"
      opacity="0.15"
    />
  </symbol>

  <!-- BELL WITH BADGE -->
  <symbol id="header-bell-badge" viewBox="0 0 24 24">
    <title>Notificaciones</title>
    <!-- Bell body -->
    <path
      d="M18 8A6 6 0 0 0 6 8c0 7-3 9-3 9h18s-3-2-3-9"
      fill="none"
      stroke="currentColor"
      stroke-width="1.75"
      stroke-linecap="round"
      stroke-linejoin="round"
    />
    <path
      d="M18 8A6 6 0 0 0 6 8c0 7-3 9-3 9h18s-3-2-3-9"
      fill="currentColor"
      opacity="0.05"
    />
    <!-- Clapper -->
    <path
      d="M13.73 21a2 2 0 0 1-3.46 0"
      stroke="currentColor"
      stroke-width="1.75"
      stroke-linecap="round"
    />
    <!-- Notification badge -->
    <circle cx="17" cy="6" r="4" fill="url(#alertGrad)"/>
    <circle cx="16.2" cy="5.2" r="1.2" fill="white" opacity="0.3"/>
  </symbol>

  <!-- BELL ACTIVE -->
  <symbol id="header-bell-active" viewBox="0 0 24 24">
    <title>Notificaciones</title>
    <path
      d="M18 8A6 6 0 0 0 6 8c0 7-3 9-3 9h18s-3-2-3-9"
      fill="url(#headerBlueGrad)"
      stroke="#3B82F6"
      stroke-width="1"
      filter="url(#headerGlow)"
    />
    <path
      d="M13.73 21a2 2 0 0 1-3.46 0"
      stroke="#3B82F6"
      stroke-width="1.75"
      stroke-linecap="round"
    />
    <path
      d="M8 8c0-2.2 1.8-4 4-4"
      fill="none"
      stroke="#DBEAFE"
      stroke-width="0.5"
      opacity="0.5"
    />
  </symbol>

  <!-- ═══════════════════════════════════════════════════════════════════════
       SHARE - Compartir
       Modern share icon with connection nodes
       ═══════════════════════════════════════════════════════════════════════ -->
  <symbol id="header-share" viewBox="0 0 24 24">
    <title>Compartir</title>
    <!-- Connection lines -->
    <path
      d="M18 8l-6 4-6-4"
      fill="none"
      stroke="currentColor"
      stroke-width="1.5"
      stroke-linecap="round"
      opacity="0.6"
    />
    <path
      d="M6 12l6 4 6-4"
      fill="none"
      stroke="currentColor"
      stroke-width="1.5"
      stroke-linecap="round"
      opacity="0.6"
    />
    <!-- Top node -->
    <circle cx="18" cy="5" r="3" fill="none" stroke="currentColor" stroke-width="1.75"/>
    <circle cx="18" cy="5" r="1.8" fill="currentColor" opacity="0.1"/>
    <circle cx="17.5" cy="4.5" r="0.6" fill="currentColor" opacity="0.2"/>
    <!-- Middle node -->
    <circle cx="6" cy="12" r="3" fill="none" stroke="currentColor" stroke-width="1.75"/>
    <circle cx="6" cy="12" r="1.8" fill="currentColor" opacity="0.1"/>
    <circle cx="5.5" cy="11.5" r="0.6" fill="currentColor" opacity="0.2"/>
    <!-- Bottom node -->
    <circle cx="18" cy="19" r="3" fill="none" stroke="currentColor" stroke-width="1.75"/>
    <circle cx="18" cy="19" r="1.8" fill="currentColor" opacity="0.1"/>
    <circle cx="17.5" cy="18.5" r="0.6" fill="currentColor" opacity="0.2"/>
  </symbol>

  <!-- SHARE ACTIVE -->
  <symbol id="header-share-active" viewBox="0 0 24 24">
    <title>Compartir</title>
    <path
      d="M18 8l-6 4-6-4M6 12l6 4 6-4"
      fill="none"
      stroke="#60A5FA"
      stroke-width="1.5"
      stroke-linecap="round"
    />
    <circle cx="18" cy="5" r="3" fill="url(#headerBlueGrad)" filter="url(#headerGlow)"/>
    <circle cx="6" cy="12" r="3" fill="url(#headerBlueGrad)" filter="url(#headerGlow)"/>
    <circle cx="18" cy="19" r="3" fill="url(#headerBlueGrad)" filter="url(#headerGlow)"/>
  </symbol>

  <!-- ═══════════════════════════════════════════════════════════════════════
       USER - Avatar/Profile
       Premium user silhouette
       ═══════════════════════════════════════════════════════════════════════ -->
  <symbol id="header-user" viewBox="0 0 24 24">
    <title>Perfil</title>
    <!-- Head -->
    <circle
      cx="12"
      cy="8"
      r="4"
      fill="none"
      stroke="currentColor"
      stroke-width="1.75"
    />
    <!-- Face depth -->
    <circle cx="12" cy="8" r="2.5" fill="currentColor" opacity="0.06"/>
    <!-- Body -->
    <path
      d="M4 21v-2a4 4 0 0 1 4-4h8a4 4 0 0 1 4 4v2"
      fill="none"
      stroke="currentColor"
      stroke-width="1.75"
      stroke-linecap="round"
    />
    <!-- Body fill -->
    <path
      d="M4 21v-2a4 4 0 0 1 4-4h8a4 4 0 0 1 4 4v2"
      fill="currentColor"
      opacity="0.04"
    />
    <!-- Collar hint -->
    <path
      d="M9 15 L12 17 L15 15"
      fill="none"
      stroke="currentColor"
      stroke-width="0.5"
      opacity="0.2"
    />
  </symbol>

  <!-- USER CIRCLE (Avatar placeholder) -->
  <symbol id="header-user-circle" viewBox="0 0 24 24">
    <title>Perfil</title>
    <!-- Outer circle -->
    <circle
      cx="12"
      cy="12"
      r="10"
      fill="none"
      stroke="currentColor"
      stroke-width="1.75"
    />
    <!-- Background -->
    <circle cx="12" cy="12" r="9" fill="currentColor" opacity="0.05"/>
    <!-- Head -->
    <circle cx="12" cy="10" r="3" fill="none" stroke="currentColor" stroke-width="1.5"/>
    <circle cx="12" cy="10" r="1.8" fill="currentColor" opacity="0.08"/>
    <!-- Body arc -->
    <path
      d="M6.168 18.849A4 4 0 0 1 10 16h4a4 4 0 0 1 3.834 2.855"
      fill="none"
      stroke="currentColor"
      stroke-width="1.5"
      stroke-linecap="round"
    />
  </symbol>

  <!-- USER ACTIVE -->
  <symbol id="header-user-active" viewBox="0 0 24 24">
    <title>Perfil</title>
    <circle
      cx="12"
      cy="12"
      r="10"
      fill="url(#headerBlueGrad)"
      filter="url(#headerGlow)"
    />
    <circle cx="12" cy="10" r="3" fill="none" stroke="white" stroke-width="1.5"/>
    <path
      d="M6.168 18.849A4 4 0 0 1 10 16h4a4 4 0 0 1 3.834 2.855"
      fill="none"
      stroke="white"
      stroke-width="1.5"
      stroke-linecap="round"
    />
  </symbol>

  <!-- ═══════════════════════════════════════════════════════════════════════
       GLOBE - Language selector
       Premium globe with latitude/longitude lines
       ═══════════════════════════════════════════════════════════════════════ -->
  <symbol id="header-globe" viewBox="0 0 24 24">
    <title>Idioma</title>
    <!-- Globe circle -->
    <circle
      cx="12"
      cy="12"
      r="10"
      fill="none"
      stroke="currentColor"
      stroke-width="1.75"
    />
    <!-- Earth fill -->
    <circle cx="12" cy="12" r="9" fill="currentColor" opacity="0.04"/>
    <!-- Vertical meridian -->
    <ellipse
      cx="12"
      cy="12"
      rx="4"
      ry="10"
      fill="none"
      stroke="currentColor"
      stroke-width="1"
      opacity="0.5"
    />
    <!-- Horizontal lines (latitudes) -->
    <path
      d="M2 12h20"
      stroke="currentColor"
      stroke-width="1"
      opacity="0.5"
    />
    <path
      d="M4 7h16"
      stroke="currentColor"
      stroke-width="0.75"
      opacity="0.3"
    />
    <path
      d="M4 17h16"
      stroke="currentColor"
      stroke-width="0.75"
      opacity="0.3"
    />
    <!-- Shine -->
    <ellipse
      cx="8"
      cy="8"
      rx="2.5"
      ry="2"
      fill="currentColor"
      opacity="0.08"
      transform="rotate(-30 8 8)"
    />
  </symbol>

  <!-- GLOBE ACTIVE -->
  <symbol id="header-globe-active" viewBox="0 0 24 24">
    <title>Idioma</title>
    <circle
      cx="12"
      cy="12"
      r="10"
      fill="url(#headerBlueGrad)"
      filter="url(#headerGlow)"
    />
    <ellipse
      cx="12"
      cy="12"
      rx="4"
      ry="10"
      fill="none"
      stroke="white"
      stroke-width="1"
      opacity="0.6"
    />
    <path d="M2 12h20" stroke="white" stroke-width="1" opacity="0.6"/>
    <path d="M4 7h16" stroke="white" stroke-width="0.75" opacity="0.4"/>
    <path d="M4 17h16" stroke="white" stroke-width="0.75" opacity="0.4"/>
  </symbol>

  <!-- ═══════════════════════════════════════════════════════════════════════
       CHEVRON DOWN - Dropdown indicator
       Smooth animated-feel chevron
       ═══════════════════════════════════════════════════════════════════════ -->
  <symbol id="header-chevron-down" viewBox="0 0 24 24">
    <title>Expandir</title>
    <path
      d="M6 9l6 6 6-6"
      fill="none"
      stroke="currentColor"
      stroke-width="2"
      stroke-linecap="round"
      stroke-linejoin="round"
    />
  </symbol>

  <!-- CHEVRON UP -->
  <symbol id="header-chevron-up" viewBox="0 0 24 24">
    <title>Contraer</title>
    <path
      d="M18 15l-6-6-6 6"
      fill="none"
      stroke="currentColor"
      stroke-width="2"
      stroke-linecap="round"
      stroke-linejoin="round"
    />
  </symbol>

  <!-- ═══════════════════════════════════════════════════════════════════════
       MENU HAMBURGER - Mobile menu toggle
       Three-line premium hamburger
       ═══════════════════════════════════════════════════════════════════════ -->
  <symbol id="header-menu" viewBox="0 0 24 24">
    <title>Menu</title>
    <!-- Lines with rounded caps -->
    <line
      x1="3" y1="6" x2="21" y2="6"
      stroke="currentColor"
      stroke-width="2"
      stroke-linecap="round"
    />
    <line
      x1="3" y1="12" x2="21" y2="12"
      stroke="currentColor"
      stroke-width="2"
      stroke-linecap="round"
    />
    <line
      x1="3" y1="18" x2="21" y2="18"
      stroke="currentColor"
      stroke-width="2"
      stroke-linecap="round"
    />
    <!-- Subtle depth hints -->
    <line
      x1="3" y1="6.3" x2="21" y2="6.3"
      stroke="currentColor"
      stroke-width="0.3"
      opacity="0.15"
    />
    <line
      x1="3" y1="12.3" x2="21" y2="12.3"
      stroke="currentColor"
      stroke-width="0.3"
      opacity="0.15"
    />
  </symbol>

  <!-- ═══════════════════════════════════════════════════════════════════════
       CLOSE - Close button
       Premium X with subtle background
       ═══════════════════════════════════════════════════════════════════════ -->
  <symbol id="header-close" viewBox="0 0 24 24">
    <title>Cerrar</title>
    <!-- Subtle circle background -->
    <circle cx="12" cy="12" r="10" fill="currentColor" opacity="0.04"/>
    <!-- X mark -->
    <path
      d="M18 6L6 18M6 6l12 12"
      stroke="currentColor"
      stroke-width="2"
      stroke-linecap="round"
    />
  </symbol>

  <!-- ═══════════════════════════════════════════════════════════════════════
       PLUS - Add/Publish button
       Clean plus icon
       ═══════════════════════════════════════════════════════════════════════ -->
  <symbol id="header-plus" viewBox="0 0 24 24">
    <title>Agregar</title>
    <line
      x1="12" y1="5" x2="12" y2="19"
      stroke="currentColor"
      stroke-width="2"
      stroke-linecap="round"
    />
    <line
      x1="5" y1="12" x2="19" y2="12"
      stroke="currentColor"
      stroke-width="2"
      stroke-linecap="round"
    />
  </symbol>

  <!-- PLUS CIRCLE -->
  <symbol id="header-plus-circle" viewBox="0 0 24 24">
    <title>Agregar</title>
    <circle
      cx="12"
      cy="12"
      r="10"
      fill="none"
      stroke="currentColor"
      stroke-width="1.75"
    />
    <circle cx="12" cy="12" r="8.5" fill="currentColor" opacity="0.04"/>
    <line
      x1="12" y1="8" x2="12" y2="16"
      stroke="currentColor"
      stroke-width="2"
      stroke-linecap="round"
    />
    <line
      x1="8" y1="12" x2="16" y2="12"
      stroke="currentColor"
      stroke-width="2"
      stroke-linecap="round"
    />
  </symbol>

  <!-- ═══════════════════════════════════════════════════════════════════════
       PUBLISH-CAR - Publicar auto
       Premium car with plus badge - perfect for "Publicar auto" CTA
       ═══════════════════════════════════════════════════════════════════════ -->
  <symbol id="header-publish-car" viewBox="0 0 24 24">
    <title>Publicar auto</title>
    <!-- Car body silhouette -->
    <path
      d="M2 14h16v3a1 1 0 0 1-1 1H3a1 1 0 0 1-1-1v-3z"
      fill="none"
      stroke="currentColor"
      stroke-width="1.5"
      stroke-linejoin="round"
    />
    <!-- Roof -->
    <path
      d="M4 14l1.5-4h9l1.5 4"
      fill="none"
      stroke="currentColor"
      stroke-width="1.5"
      stroke-linecap="round"
      stroke-linejoin="round"
    />
    <!-- Windows glass effect -->
    <path
      d="M5.8 14l1.2-3.2h6l1.2 3.2"
      fill="currentColor"
      opacity="0.06"
    />
    <!-- Front wheel -->
    <circle cx="5.5" cy="18" r="1.8" fill="none" stroke="currentColor" stroke-width="1.5"/>
    <circle cx="5.5" cy="18" r="0.6" fill="currentColor"/>
    <!-- Rear wheel -->
    <circle cx="14.5" cy="18" r="1.8" fill="none" stroke="currentColor" stroke-width="1.5"/>
    <circle cx="14.5" cy="18" r="0.6" fill="currentColor"/>

    <!-- Plus badge (top-right) -->
    <g transform="translate(17, 7)">
      <!-- Badge circle with gradient feel -->
      <circle cx="0" cy="0" r="5" fill="currentColor"/>
      <circle cx="0" cy="0" r="4.2" fill="none" stroke="white" stroke-width="0.3" opacity="0.3"/>
      <!-- Plus sign -->
      <line x1="0" y1="-2.2" x2="0" y2="2.2" stroke="white" stroke-width="1.5" stroke-linecap="round"/>
      <line x1="-2.2" y1="0" x2="2.2" y2="0" stroke="white" stroke-width="1.5" stroke-linecap="round"/>
    </g>
  </symbol>

  <!-- PUBLISH-CAR ACTIVE -->
  <symbol id="header-publish-car-active" viewBox="0 0 24 24">
    <title>Publicar auto</title>
    <!-- Car body filled -->
    <path
      d="M2 14h16v3a1 1 0 0 1-1 1H3a1 1 0 0 1-1-1v-3z"
      fill="url(#headerBlueGrad)"
      stroke="#3B82F6"
      stroke-width="1"
    />
    <!-- Roof filled -->
    <path
      d="M4 14l1.5-4h9l1.5 4"
      fill="url(#headerBlueGrad)"
    />
    <!-- Windows -->
    <path
      d="M5.8 14l1.2-3.2h6l1.2 3.2"
      fill="#DBEAFE"
      opacity="0.8"
    />
    <!-- Wheels -->
    <circle cx="5.5" cy="18" r="1.8" fill="#1E40AF"/>
    <circle cx="5.5" cy="18" r="0.6" fill="white"/>
    <circle cx="14.5" cy="18" r="1.8" fill="#1E40AF"/>
    <circle cx="14.5" cy="18" r="0.6" fill="white"/>

    <!-- Plus badge -->
    <g transform="translate(17, 7)">
      <circle cx="0" cy="0" r="5" fill="#10B981"/>
      <circle cx="0" cy="0" r="4.2" fill="none" stroke="white" stroke-width="0.3" opacity="0.4"/>
      <line x1="0" y1="-2.2" x2="0" y2="2.2" stroke="white" stroke-width="1.5" stroke-linecap="round"/>
      <line x1="-2.2" y1="0" x2="2.2" y2="0" stroke="white" stroke-width="1.5" stroke-linecap="round"/>
    </g>
  </symbol>

  <!-- ═══════════════════════════════════════════════════════════════════════
       CTA ICONS - RADIOACTIVE YELLOW PREMIUM EDITION
       Ultra-premium icons for main CTAs with neon yellow glow effect
       ═══════════════════════════════════════════════════════════════════════ -->

  <!-- CTA-SEARCH: Buscar autos - Radioactive Yellow -->
  <symbol id="header-cta-search" viewBox="0 0 24 24">
    <title>Buscar autos</title>
    <!-- Outer glow ring -->
    <circle cx="10" cy="10" r="9" fill="url(#radioactivePulse)" opacity="0.5"/>

    <!-- Main lens with gradient -->
    <circle
      cx="10"
      cy="10"
      r="7"
      fill="none"
      stroke="url(#radioactiveYellow)"
      stroke-width="2.5"
      filter="url(#yellowGlow)"
    />

    <!-- Glass reflection -->
    <ellipse
      cx="7"
      cy="7"
      rx="2.5"
      ry="1.8"
      fill="url(#radioactiveGlow)"
      opacity="0.6"
      transform="rotate(-45 7 7)"
    />

    <!-- Inner lens depth -->
    <circle cx="10" cy="10" r="5" fill="#FACC15" opacity="0.08"/>

    <!-- Car silhouette inside lens -->
    <g transform="translate(5.5, 8) scale(0.4)">
      <path
        d="M1 8h18v4H1z M4 8l2-4h8l2 4"
        fill="none"
        stroke="#CA8A04"
        stroke-width="2"
        stroke-linecap="round"
        stroke-linejoin="round"
      />
      <circle cx="4" cy="12" r="1.5" fill="#CA8A04"/>
      <circle cx="16" cy="12" r="1.5" fill="#CA8A04"/>
    </g>

    <!-- Handle with gradient -->
    <line
      x1="15.5"
      y1="15.5"
      x2="22"
      y2="22"
      stroke="url(#radioactiveYellow)"
      stroke-width="3"
      stroke-linecap="round"
      filter="url(#yellowGlow)"
    />

    <!-- Handle highlight -->
    <line
      x1="16"
      y1="16"
      x2="20"
      y2="20"
      stroke="#FEF9C3"
      stroke-width="1"
      stroke-linecap="round"
      opacity="0.6"
    />
  </symbol>

  <!-- CTA-PUBLISH: Publicar auto - Radioactive Yellow -->
  <symbol id="header-cta-publish" viewBox="0 0 24 24">
    <title>Publicar auto</title>

    <!-- Background glow -->
    <ellipse cx="10" cy="14" rx="10" ry="6" fill="url(#radioactivePulse)" opacity="0.3"/>

    <!-- Car body with premium gradient -->
    <path
      d="M1 13h16v4a1.5 1.5 0 0 1-1.5 1.5h-13A1.5 1.5 0 0 1 1 17v-4z"
      fill="url(#radioactiveYellow)"
      filter="url(#yellowGlow)"
    />

    <!-- Roof -->
    <path
      d="M3.5 13l2-5h7l2 5"
      fill="url(#radioactiveYellow)"
    />

    <!-- Windows with glass effect -->
    <path
      d="M5.2 13l1.5-3.8h4.6l1.5 3.8"
      fill="#FEF9C3"
      opacity="0.7"
    />
    <path
      d="M5.5 12.5l1.3-3.3h4l1.3 3.3"
      fill="none"
      stroke="#CA8A04"
      stroke-width="0.3"
      opacity="0.5"
    />

    <!-- Window divider -->
    <line x1="9" y1="9" x2="9" y2="13" stroke="#CA8A04" stroke-width="0.5" opacity="0.6"/>

    <!-- Front wheel with detail -->
    <circle cx="5" cy="18" r="2.2" fill="#78350F"/>
    <circle cx="5" cy="18" r="1.6" fill="url(#radioactiveYellow)"/>
    <circle cx="5" cy="18" r="0.8" fill="#78350F"/>
    <circle cx="5" cy="18" r="0.4" fill="#FACC15"/>

    <!-- Rear wheel with detail -->
    <circle cx="13" cy="18" r="2.2" fill="#78350F"/>
    <circle cx="13" cy="18" r="1.6" fill="url(#radioactiveYellow)"/>
    <circle cx="13" cy="18" r="0.8" fill="#78350F"/>
    <circle cx="13" cy="18" r="0.4" fill="#FACC15"/>

    <!-- Headlight -->
    <rect x="15" y="14" width="1.5" height="1" rx="0.3" fill="#FEF9C3"/>

    <!-- Plus badge with neon effect -->
    <g transform="translate(18, 6)">
      <!-- Outer glow -->
      <circle cx="0" cy="0" r="6" fill="url(#radioactivePulse)" opacity="0.6"/>
      <!-- Main badge -->
      <circle cx="0" cy="0" r="4.5" fill="url(#radioactiveYellow)" filter="url(#yellowGlow)"/>
      <!-- Inner ring -->
      <circle cx="0" cy="0" r="3.5" fill="none" stroke="#FEF9C3" stroke-width="0.5" opacity="0.5"/>
      <!-- Plus sign -->
      <line x1="0" y1="-2" x2="0" y2="2" stroke="#78350F" stroke-width="2" stroke-linecap="round"/>
      <line x1="-2" y1="0" x2="2" y2="0" stroke="#78350F" stroke-width="2" stroke-linecap="round"/>
      <!-- Plus highlight -->
      <line x1="-0.3" y1="-1.7" x2="-0.3" y2="1.7" stroke="#FEF9C3" stroke-width="0.5" stroke-linecap="round" opacity="0.6"/>
    </g>

    <!-- Body shine -->
    <path
      d="M3 13 Q5 11.5 8 12"
      fill="none"
      stroke="#FEF9C3"
      stroke-width="0.8"
      opacity="0.5"
    />
  </symbol>

  <!-- ═══════════════════════════════════════════════════════════════════════
       FLAG ARGENTINA - Language indicator
       Argentine flag colors
       ═══════════════════════════════════════════════════════════════════════ -->
  <symbol id="header-flag-ar" viewBox="0 0 24 24">
    <title>Argentina</title>
    <!-- Flag background with rounded corners -->
    <rect x="2" y="5" width="20" height="14" rx="2" fill="#75AADB"/>
    <!-- White stripe -->
    <rect x="2" y="9.5" width="20" height="5" fill="white"/>
    <!-- Sun of May -->
    <circle cx="12" cy="12" r="2" fill="#FCBF49"/>
    <circle cx="12" cy="12" r="1.3" fill="#F9A825"/>
    <!-- Sun rays (simplified) -->
    <g stroke="#FCBF49" stroke-width="0.6" stroke-linecap="round">
      <line x1="12" y1="8" x2="12" y2="9"/>
      <line x1="12" y1="15" x2="12" y2="16"/>
      <line x1="8" y1="12" x2="9" y2="12"/>
      <line x1="15" y1="12" x2="16" y2="12"/>
      <line x1="9.2" y1="9.2" x2="9.9" y2="9.9"/>
      <line x1="14.1" y1="14.1" x2="14.8" y2="14.8"/>
      <line x1="14.1" y1="9.9" x2="14.8" y2="9.2"/>
      <line x1="9.2" y1="14.8" x2="9.9" y2="14.1"/>
    </g>
    <!-- Rounded border -->
    <rect x="2" y="5" width="20" height="14" rx="2" fill="none" stroke="currentColor" stroke-width="0.5" opacity="0.2"/>
  </symbol>

  <!-- ═══════════════════════════════════════════════════════════════════════
       CAR - Quick search icon
       Compact car silhouette
       ═══════════════════════════════════════════════════════════════════════ -->
  <symbol id="header-car" viewBox="0 0 24 24">
    <title>Auto</title>
    <!-- Car body -->
    <path
      d="M3 14h18v3a1 1 0 0 1-1 1H4a1 1 0 0 1-1-1v-3z"
      fill="none"
      stroke="currentColor"
      stroke-width="1.75"
    />
    <!-- Roof -->
    <path
      d="M5 14l2-5h10l2 5"
      fill="none"
      stroke="currentColor"
      stroke-width="1.75"
      stroke-linecap="round"
      stroke-linejoin="round"
    />
    <!-- Windows -->
    <path
      d="M7.5 14l1.5-4h6l1.5 4"
      fill="currentColor"
      opacity="0.08"
    />
    <!-- Front wheel -->
    <circle cx="7" cy="18" r="2" fill="none" stroke="currentColor" stroke-width="1.5"/>
    <circle cx="7" cy="18" r="0.8" fill="currentColor"/>
    <!-- Rear wheel -->
    <circle cx="17" cy="18" r="2" fill="none" stroke="currentColor" stroke-width="1.5"/>
    <circle cx="17" cy="18" r="0.8" fill="currentColor"/>
  </symbol>

</svg>
