<?xml version="1.0" encoding="UTF-8"?>
<!--
  AutoRenta Header Icons - Ultra Premium Edition
  World-class icons for desktop/mobile header navigation

  Design Specifications:
  ├── Grid: 24x24 optical with 2px safe area
  ├── Stroke: 1.75px primary, 1.25px secondary
  ├── Style: Outlined with subtle fills for depth
  └── Visual balance: Optimized for 20-24px display

  Color System:
  ├── Primary: currentColor (inherits from parent)
  ├── Accent: #3B82F6 (Electric Blue)
  ├── Alert: #EF4444 (Red for notifications)
  └── Neutral: #6B7280 (Gray)
-->
<svg xmlns="http://www.w3.org/2000/svg" style="display:none">

  <defs>
    <!-- Premium Gradients -->
    <linearGradient id="headerBlueGrad" x1="0%" y1="0%" x2="100%" y2="100%">
      <stop offset="0%" stop-color="#3B82F6"/>
      <stop offset="100%" stop-color="#1D4ED8"/>
    </linearGradient>

    <linearGradient id="headerGlassGrad" x1="0%" y1="0%" x2="0%" y2="100%">
      <stop offset="0%" stop-color="#FFFFFF" stop-opacity="0.3"/>
      <stop offset="100%" stop-color="#FFFFFF" stop-opacity="0"/>
    </linearGradient>

    <linearGradient id="headerMetalGrad" x1="0%" y1="0%" x2="0%" y2="100%">
      <stop offset="0%" stop-color="#F3F4F6"/>
      <stop offset="50%" stop-color="#D1D5DB"/>
      <stop offset="100%" stop-color="#9CA3AF"/>
    </linearGradient>

    <!-- Alert/Notification Gradient -->
    <linearGradient id="alertGrad" x1="0%" y1="0%" x2="100%" y2="100%">
      <stop offset="0%" stop-color="#F87171"/>
      <stop offset="100%" stop-color="#DC2626"/>
    </linearGradient>

    <!-- RADIOACTIVE YELLOW Gradients -->
    <linearGradient id="radioactiveYellow" x1="0%" y1="0%" x2="100%" y2="100%">
      <stop offset="0%" stop-color="#FDE047"/>
      <stop offset="50%" stop-color="#FACC15"/>
      <stop offset="100%" stop-color="#EAB308"/>
    </linearGradient>

    <linearGradient id="radioactiveGlow" x1="0%" y1="0%" x2="0%" y2="100%">
      <stop offset="0%" stop-color="#FEF9C3"/>
      <stop offset="100%" stop-color="#FDE047"/>
    </linearGradient>

    <radialGradient id="radioactivePulse" cx="50%" cy="50%" r="50%">
      <stop offset="0%" stop-color="#FEF08A" stop-opacity="0.8"/>
      <stop offset="70%" stop-color="#FACC15" stop-opacity="0.4"/>
      <stop offset="100%" stop-color="#CA8A04" stop-opacity="0"/>
    </radialGradient>

    <!-- Radioactive Yellow Glow Filter -->
    <filter id="yellowGlow" x="-50%" y="-50%" width="200%" height="200%">
      <feGaussianBlur in="SourceAlpha" stdDeviation="2" result="blur"/>
      <feFlood flood-color="#FACC15" flood-opacity="0.6"/>
      <feComposite in2="blur" operator="in"/>
      <feMerge>
        <feMergeNode/>
        <feMergeNode in="SourceGraphic"/>
      </feMerge>
    </filter>

    <filter id="yellowNeon" x="-60%" y="-60%" width="220%" height="220%">
      <feGaussianBlur in="SourceGraphic" stdDeviation="1.5" result="blur1"/>
      <feGaussianBlur in="SourceGraphic" stdDeviation="3" result="blur2"/>
      <feMerge>
        <feMergeNode in="blur2"/>
        <feMergeNode in="blur1"/>
        <feMergeNode in="SourceGraphic"/>
      </feMerge>
    </filter>

    <!-- Filters -->
    <filter id="headerGlow" x="-30%" y="-30%" width="160%" height="160%">
      <feGaussianBlur in="SourceAlpha" stdDeviation="1" result="blur"/>
      <feFlood flood-color="#3B82F6" flood-opacity="0.2"/>
      <feComposite in2="blur" operator="in"/>
      <feMerge>
        <feMergeNode/>
        <feMergeNode in="SourceGraphic"/>
      </feMerge>
    </filter>

    <filter id="headerShadow" x="-20%" y="-20%" width="140%" height="140%">
      <feDropShadow dx="0" dy="1" stdDeviation="0.5" flood-color="#000" flood-opacity="0.1"/>
    </filter>

    <filter id="innerShine" x="-10%" y="-10%" width="120%" height="120%">
      <feOffset in="SourceAlpha" dx="0.5" dy="0.5" result="light"/>
      <feFlood flood-color="white" flood-opacity="0.2" result="lightColor"/>
      <feComposite in="lightColor" in2="light" operator="in" result="lightFinal"/>
      <feMerge>
        <feMergeNode in="lightFinal"/>
        <feMergeNode in="SourceGraphic"/>
      </feMerge>
    </filter>

    <!-- ═══════════════════════════════════════════════════════════════════════
         CTA AZUL PASTEL PREMIUM GRADIENTS & FILTERS
         Ultra-premium effects for main CTA buttons (#A7D8F4)
         ═══════════════════════════════════════════════════════════════════════ -->

    <!-- Main CTA Gradient (Lens fill) -->
    <radialGradient id="ctaLensFill" cx="30%" cy="30%" r="70%">
      <stop offset="0%" stop-color="#E8F4FC"/>
      <stop offset="40%" stop-color="#C5E4F7"/>
      <stop offset="100%" stop-color="#8BC5E8"/>
    </radialGradient>

    <!-- Lens Stroke Gradient (Metallic rim) -->
    <linearGradient id="ctaLensStroke" x1="0%" y1="0%" x2="100%" y2="100%">
      <stop offset="0%" stop-color="#D4EDFC"/>
      <stop offset="30%" stop-color="#A7D8F4"/>
      <stop offset="70%" stop-color="#5EB5E0"/>
      <stop offset="100%" stop-color="#A7D8F4"/>
    </linearGradient>

    <!-- Chrome Ring Effect -->
    <linearGradient id="ctaChromeRing" x1="0%" y1="0%" x2="100%" y2="100%">
      <stop offset="0%" stop-color="white"/>
      <stop offset="25%" stop-color="#A7D8F4"/>
      <stop offset="50%" stop-color="white"/>
      <stop offset="75%" stop-color="#5EB5E0"/>
      <stop offset="100%" stop-color="white"/>
    </linearGradient>

    <!-- Glass Surface Gradient -->
    <linearGradient id="ctaGlassSurface" x1="0%" y1="0%" x2="100%" y2="100%">
      <stop offset="0%" stop-color="white"/>
      <stop offset="50%" stop-color="#A7D8F4"/>
      <stop offset="100%" stop-color="#5EB5E0"/>
    </linearGradient>

    <!-- Glass Reflection -->
    <linearGradient id="ctaReflection" x1="0%" y1="0%" x2="100%" y2="100%">
      <stop offset="0%" stop-color="white" stop-opacity="1"/>
      <stop offset="100%" stop-color="white" stop-opacity="0"/>
    </linearGradient>

    <!-- Handle Metallic Gradient -->
    <linearGradient id="ctaHandleGradient" x1="0%" y1="0%" x2="100%" y2="100%">
      <stop offset="0%" stop-color="#D4EDFC"/>
      <stop offset="25%" stop-color="#A7D8F4"/>
      <stop offset="50%" stop-color="#E8F4FC"/>
      <stop offset="75%" stop-color="#5EB5E0"/>
      <stop offset="100%" stop-color="#A7D8F4"/>
    </linearGradient>

    <!-- Car Body Gradient -->
    <linearGradient id="ctaCarBody" x1="0%" y1="0%" x2="100%" y2="100%">
      <stop offset="0%" stop-color="#2C5282"/>
      <stop offset="50%" stop-color="#1E3A5F"/>
      <stop offset="100%" stop-color="#0F2942"/>
    </linearGradient>

    <!-- Ambient Glow -->
    <radialGradient id="ctaAmbientGlow" cx="50%" cy="50%" r="60%">
      <stop offset="0%" stop-color="#A7D8F4" stop-opacity="0.6"/>
      <stop offset="60%" stop-color="#A7D8F4" stop-opacity="0.2"/>
      <stop offset="100%" stop-color="#A7D8F4" stop-opacity="0"/>
    </radialGradient>

    <!-- Pulse Ring -->
    <linearGradient id="ctaPulseRing" x1="0%" y1="0%" x2="100%" y2="0%">
      <stop offset="0%" stop-color="#A7D8F4"/>
      <stop offset="50%" stop-color="#5EB5E0"/>
      <stop offset="100%" stop-color="#A7D8F4"/>
    </linearGradient>

    <!-- CTA Glow Filter -->
    <filter id="ctaGlow" x="-40%" y="-40%" width="180%" height="180%">
      <feGaussianBlur in="SourceAlpha" stdDeviation="1.5" result="blur"/>
      <feFlood flood-color="#A7D8F4" flood-opacity="0.5"/>
      <feComposite in2="blur" operator="in"/>
      <feMerge>
        <feMergeNode/>
        <feMergeNode in="SourceGraphic"/>
      </feMerge>
    </filter>

    <!-- CTA Neon Glow (stronger) -->
    <filter id="ctaNeonGlow" x="-50%" y="-50%" width="200%" height="200%">
      <feGaussianBlur in="SourceGraphic" stdDeviation="1" result="blur1"/>
      <feGaussianBlur in="SourceGraphic" stdDeviation="2.5" result="blur2"/>
      <feFlood flood-color="#A7D8F4" flood-opacity="0.4" result="color"/>
      <feComposite in="color" in2="blur2" operator="in" result="glow"/>
      <feMerge>
        <feMergeNode in="glow"/>
        <feMergeNode in="blur1"/>
        <feMergeNode in="SourceGraphic"/>
      </feMerge>
    </filter>

    <!-- 3D Drop Shadow for CTA -->
    <filter id="ctaShadow" x="-20%" y="-20%" width="150%" height="150%">
      <feDropShadow dx="1" dy="1.5" stdDeviation="1" flood-color="#1E3A5F" flood-opacity="0.25"/>
    </filter>

    <!-- HIGH CONTRAST Lens Inner Gradient -->
    <radialGradient id="ctaLensInner" cx="30%" cy="30%" r="80%">
      <stop offset="0%" stop-color="#66AADD" stop-opacity="0.6"/>
      <stop offset="60%" stop-color="#0077CC" stop-opacity="0.3"/>
      <stop offset="100%" stop-color="#004488" stop-opacity="0.1"/>
    </radialGradient>

    <!-- HIGH CONTRAST Yellow/Gold for Publish -->
    <linearGradient id="ctaPublishGold" x1="0%" y1="0%" x2="100%" y2="100%">
      <stop offset="0%" stop-color="#FFD700"/>
      <stop offset="50%" stop-color="#FFA500"/>
      <stop offset="100%" stop-color="#FF8C00"/>
    </linearGradient>

    <radialGradient id="ctaPublishInner" cx="30%" cy="30%" r="80%">
      <stop offset="0%" stop-color="#FFE44D" stop-opacity="0.7"/>
      <stop offset="100%" stop-color="#FF8C00" stop-opacity="0.2"/>
    </radialGradient>
  </defs>

  <!-- ═══════════════════════════════════════════════════════════════════════
       SEARCH - Buscar autos
       Premium magnifying glass with glass lens effect
       ═══════════════════════════════════════════════════════════════════════ -->
  <symbol id="header-search" viewBox="0 0 24 24">
    <title>Buscar</title>
    <!-- Lens body -->
    <circle
      cx="11"
      cy="11"
      r="7"
      fill="none"
      stroke="currentColor"
      stroke-width="1.75"
    />
    <!-- Glass effect inside lens -->
    <circle cx="11" cy="11" r="5.5" fill="currentColor" opacity="0.04"/>
    <!-- Glass reflection -->
    <ellipse
      cx="8.5"
      cy="8.5"
      rx="2"
      ry="1.5"
      fill="currentColor"
      opacity="0.12"
      transform="rotate(-45 8.5 8.5)"
    />
    <!-- Handle -->
    <line
      x1="16.5"
      y1="16.5"
      x2="21"
      y2="21"
      stroke="currentColor"
      stroke-width="2"
      stroke-linecap="round"
    />
    <!-- Handle grip detail -->
    <line
      x1="17"
      y1="17"
      x2="19"
      y2="19"
      stroke="currentColor"
      stroke-width="0.5"
      opacity="0.3"
    />
  </symbol>

  <!-- SEARCH ACTIVE -->
  <symbol id="header-search-active" viewBox="0 0 24 24">
    <title>Buscar</title>
    <circle
      cx="11"
      cy="11"
      r="7"
      fill="url(#headerBlueGrad)"
      filter="url(#headerGlow)"
    />
    <circle cx="11" cy="11" r="5" fill="none" stroke="#DBEAFE" stroke-width="0.5" opacity="0.5"/>
    <ellipse
      cx="8.5"
      cy="8.5"
      rx="2"
      ry="1.5"
      fill="white"
      opacity="0.3"
      transform="rotate(-45 8.5 8.5)"
    />
    <line
      x1="16.5"
      y1="16.5"
      x2="21"
      y2="21"
      stroke="#3B82F6"
      stroke-width="2"
      stroke-linecap="round"
    />
  </symbol>

  <!-- ═══════════════════════════════════════════════════════════════════════
       HELP - Centro de ayuda
       Question mark with premium circle
       ═══════════════════════════════════════════════════════════════════════ -->
  <symbol id="header-help" viewBox="0 0 24 24">
    <title>Ayuda</title>
    <!-- Outer circle -->
    <circle
      cx="12"
      cy="12"
      r="10"
      fill="none"
      stroke="currentColor"
      stroke-width="1.75"
    />
    <!-- Inner glow -->
    <circle cx="12" cy="12" r="8.5" fill="currentColor" opacity="0.04"/>
    <!-- Question mark curve -->
    <path
      d="M9.09 9a3 3 0 0 1 5.83 1c0 2-3 3-3 3"
      fill="none"
      stroke="currentColor"
      stroke-width="1.75"
      stroke-linecap="round"
      stroke-linejoin="round"
    />
    <!-- Dot -->
    <circle cx="12" cy="17" r="1.1" fill="currentColor"/>
    <!-- Subtle shine -->
    <path
      d="M8 7c0-1 .5-2 1.5-2.5"
      fill="none"
      stroke="currentColor"
      stroke-width="0.5"
      opacity="0.15"
    />
  </symbol>

  <!-- HELP ACTIVE -->
  <symbol id="header-help-active" viewBox="0 0 24 24">
    <title>Ayuda</title>
    <circle
      cx="12"
      cy="12"
      r="10"
      fill="url(#headerBlueGrad)"
      filter="url(#headerGlow)"
    />
    <path
      d="M9.09 9a3 3 0 0 1 5.83 1c0 2-3 3-3 3"
      fill="none"
      stroke="white"
      stroke-width="1.75"
      stroke-linecap="round"
      stroke-linejoin="round"
    />
    <circle cx="12" cy="17" r="1.1" fill="white"/>
  </symbol>

  <!-- ═══════════════════════════════════════════════════════════════════════
       BELL - Notificaciones
       Premium bell with notification badge support
       ═══════════════════════════════════════════════════════════════════════ -->
  <symbol id="header-bell" viewBox="0 0 24 24">
    <title>Notificaciones</title>
    <!-- Bell body -->
    <path
      d="M18 8A6 6 0 0 0 6 8c0 7-3 9-3 9h18s-3-2-3-9"
      fill="none"
      stroke="currentColor"
      stroke-width="1.75"
      stroke-linecap="round"
      stroke-linejoin="round"
    />
    <!-- Inner depth -->
    <path
      d="M18 8A6 6 0 0 0 6 8c0 7-3 9-3 9h18s-3-2-3-9"
      fill="currentColor"
      opacity="0.05"
    />
    <!-- Clapper -->
    <path
      d="M13.73 21a2 2 0 0 1-3.46 0"
      stroke="currentColor"
      stroke-width="1.75"
      stroke-linecap="round"
    />
    <!-- Inner shine -->
    <path
      d="M8 8c0-2.2 1.8-4 4-4"
      fill="none"
      stroke="currentColor"
      stroke-width="0.5"
      opacity="0.15"
    />
  </symbol>

  <!-- BELL WITH BADGE -->
  <symbol id="header-bell-badge" viewBox="0 0 24 24">
    <title>Notificaciones</title>
    <!-- Bell body -->
    <path
      d="M18 8A6 6 0 0 0 6 8c0 7-3 9-3 9h18s-3-2-3-9"
      fill="none"
      stroke="currentColor"
      stroke-width="1.75"
      stroke-linecap="round"
      stroke-linejoin="round"
    />
    <path
      d="M18 8A6 6 0 0 0 6 8c0 7-3 9-3 9h18s-3-2-3-9"
      fill="currentColor"
      opacity="0.05"
    />
    <!-- Clapper -->
    <path
      d="M13.73 21a2 2 0 0 1-3.46 0"
      stroke="currentColor"
      stroke-width="1.75"
      stroke-linecap="round"
    />
    <!-- Notification badge -->
    <circle cx="17" cy="6" r="4" fill="url(#alertGrad)"/>
    <circle cx="16.2" cy="5.2" r="1.2" fill="white" opacity="0.3"/>
  </symbol>

  <!-- BELL ACTIVE -->
  <symbol id="header-bell-active" viewBox="0 0 24 24">
    <title>Notificaciones</title>
    <path
      d="M18 8A6 6 0 0 0 6 8c0 7-3 9-3 9h18s-3-2-3-9"
      fill="url(#headerBlueGrad)"
      stroke="#3B82F6"
      stroke-width="1"
      filter="url(#headerGlow)"
    />
    <path
      d="M13.73 21a2 2 0 0 1-3.46 0"
      stroke="#3B82F6"
      stroke-width="1.75"
      stroke-linecap="round"
    />
    <path
      d="M8 8c0-2.2 1.8-4 4-4"
      fill="none"
      stroke="#DBEAFE"
      stroke-width="0.5"
      opacity="0.5"
    />
  </symbol>

  <!-- ═══════════════════════════════════════════════════════════════════════
       SHARE - Compartir
       Modern share icon with connection nodes
       ═══════════════════════════════════════════════════════════════════════ -->
  <symbol id="header-share" viewBox="0 0 24 24">
    <title>Compartir</title>
    <!-- Connection lines -->
    <path
      d="M18 8l-6 4-6-4"
      fill="none"
      stroke="currentColor"
      stroke-width="1.5"
      stroke-linecap="round"
      opacity="0.6"
    />
    <path
      d="M6 12l6 4 6-4"
      fill="none"
      stroke="currentColor"
      stroke-width="1.5"
      stroke-linecap="round"
      opacity="0.6"
    />
    <!-- Top node -->
    <circle cx="18" cy="5" r="3" fill="none" stroke="currentColor" stroke-width="1.75"/>
    <circle cx="18" cy="5" r="1.8" fill="currentColor" opacity="0.1"/>
    <circle cx="17.5" cy="4.5" r="0.6" fill="currentColor" opacity="0.2"/>
    <!-- Middle node -->
    <circle cx="6" cy="12" r="3" fill="none" stroke="currentColor" stroke-width="1.75"/>
    <circle cx="6" cy="12" r="1.8" fill="currentColor" opacity="0.1"/>
    <circle cx="5.5" cy="11.5" r="0.6" fill="currentColor" opacity="0.2"/>
    <!-- Bottom node -->
    <circle cx="18" cy="19" r="3" fill="none" stroke="currentColor" stroke-width="1.75"/>
    <circle cx="18" cy="19" r="1.8" fill="currentColor" opacity="0.1"/>
    <circle cx="17.5" cy="18.5" r="0.6" fill="currentColor" opacity="0.2"/>
  </symbol>

  <!-- SHARE ACTIVE -->
  <symbol id="header-share-active" viewBox="0 0 24 24">
    <title>Compartir</title>
    <path
      d="M18 8l-6 4-6-4M6 12l6 4 6-4"
      fill="none"
      stroke="#60A5FA"
      stroke-width="1.5"
      stroke-linecap="round"
    />
    <circle cx="18" cy="5" r="3" fill="url(#headerBlueGrad)" filter="url(#headerGlow)"/>
    <circle cx="6" cy="12" r="3" fill="url(#headerBlueGrad)" filter="url(#headerGlow)"/>
    <circle cx="18" cy="19" r="3" fill="url(#headerBlueGrad)" filter="url(#headerGlow)"/>
  </symbol>

  <!-- ═══════════════════════════════════════════════════════════════════════
       USER - Avatar/Profile
       Premium user silhouette
       ═══════════════════════════════════════════════════════════════════════ -->
  <symbol id="header-user" viewBox="0 0 24 24">
    <title>Perfil</title>
    <!-- Head -->
    <circle
      cx="12"
      cy="8"
      r="4"
      fill="none"
      stroke="currentColor"
      stroke-width="1.75"
    />
    <!-- Face depth -->
    <circle cx="12" cy="8" r="2.5" fill="currentColor" opacity="0.06"/>
    <!-- Body -->
    <path
      d="M4 21v-2a4 4 0 0 1 4-4h8a4 4 0 0 1 4 4v2"
      fill="none"
      stroke="currentColor"
      stroke-width="1.75"
      stroke-linecap="round"
    />
    <!-- Body fill -->
    <path
      d="M4 21v-2a4 4 0 0 1 4-4h8a4 4 0 0 1 4 4v2"
      fill="currentColor"
      opacity="0.04"
    />
    <!-- Collar hint -->
    <path
      d="M9 15 L12 17 L15 15"
      fill="none"
      stroke="currentColor"
      stroke-width="0.5"
      opacity="0.2"
    />
  </symbol>

  <!-- USER CIRCLE (Avatar placeholder) -->
  <symbol id="header-user-circle" viewBox="0 0 24 24">
    <title>Perfil</title>
    <!-- Outer circle -->
    <circle
      cx="12"
      cy="12"
      r="10"
      fill="none"
      stroke="currentColor"
      stroke-width="1.75"
    />
    <!-- Background -->
    <circle cx="12" cy="12" r="9" fill="currentColor" opacity="0.05"/>
    <!-- Head -->
    <circle cx="12" cy="10" r="3" fill="none" stroke="currentColor" stroke-width="1.5"/>
    <circle cx="12" cy="10" r="1.8" fill="currentColor" opacity="0.08"/>
    <!-- Body arc -->
    <path
      d="M6.168 18.849A4 4 0 0 1 10 16h4a4 4 0 0 1 3.834 2.855"
      fill="none"
      stroke="currentColor"
      stroke-width="1.5"
      stroke-linecap="round"
    />
  </symbol>

  <!-- USER ACTIVE -->
  <symbol id="header-user-active" viewBox="0 0 24 24">
    <title>Perfil</title>
    <circle
      cx="12"
      cy="12"
      r="10"
      fill="url(#headerBlueGrad)"
      filter="url(#headerGlow)"
    />
    <circle cx="12" cy="10" r="3" fill="none" stroke="white" stroke-width="1.5"/>
    <path
      d="M6.168 18.849A4 4 0 0 1 10 16h4a4 4 0 0 1 3.834 2.855"
      fill="none"
      stroke="white"
      stroke-width="1.5"
      stroke-linecap="round"
    />
  </symbol>

  <!-- ═══════════════════════════════════════════════════════════════════════
       GLOBE - Language selector
       Premium globe with latitude/longitude lines
       ═══════════════════════════════════════════════════════════════════════ -->
  <symbol id="header-globe" viewBox="0 0 24 24">
    <title>Idioma</title>
    <!-- Globe circle -->
    <circle
      cx="12"
      cy="12"
      r="10"
      fill="none"
      stroke="currentColor"
      stroke-width="1.75"
    />
    <!-- Earth fill -->
    <circle cx="12" cy="12" r="9" fill="currentColor" opacity="0.04"/>
    <!-- Vertical meridian -->
    <ellipse
      cx="12"
      cy="12"
      rx="4"
      ry="10"
      fill="none"
      stroke="currentColor"
      stroke-width="1"
      opacity="0.5"
    />
    <!-- Horizontal lines (latitudes) -->
    <path
      d="M2 12h20"
      stroke="currentColor"
      stroke-width="1"
      opacity="0.5"
    />
    <path
      d="M4 7h16"
      stroke="currentColor"
      stroke-width="0.75"
      opacity="0.3"
    />
    <path
      d="M4 17h16"
      stroke="currentColor"
      stroke-width="0.75"
      opacity="0.3"
    />
    <!-- Shine -->
    <ellipse
      cx="8"
      cy="8"
      rx="2.5"
      ry="2"
      fill="currentColor"
      opacity="0.08"
      transform="rotate(-30 8 8)"
    />
  </symbol>

  <!-- GLOBE ACTIVE -->
  <symbol id="header-globe-active" viewBox="0 0 24 24">
    <title>Idioma</title>
    <circle
      cx="12"
      cy="12"
      r="10"
      fill="url(#headerBlueGrad)"
      filter="url(#headerGlow)"
    />
    <ellipse
      cx="12"
      cy="12"
      rx="4"
      ry="10"
      fill="none"
      stroke="white"
      stroke-width="1"
      opacity="0.6"
    />
    <path d="M2 12h20" stroke="white" stroke-width="1" opacity="0.6"/>
    <path d="M4 7h16" stroke="white" stroke-width="0.75" opacity="0.4"/>
    <path d="M4 17h16" stroke="white" stroke-width="0.75" opacity="0.4"/>
  </symbol>

  <!-- ═══════════════════════════════════════════════════════════════════════
       CHEVRON DOWN - Dropdown indicator
       Smooth animated-feel chevron
       ═══════════════════════════════════════════════════════════════════════ -->
  <symbol id="header-chevron-down" viewBox="0 0 24 24">
    <title>Expandir</title>
    <path
      d="M6 9l6 6 6-6"
      fill="none"
      stroke="currentColor"
      stroke-width="2"
      stroke-linecap="round"
      stroke-linejoin="round"
    />
  </symbol>

  <!-- CHEVRON UP -->
  <symbol id="header-chevron-up" viewBox="0 0 24 24">
    <title>Contraer</title>
    <path
      d="M18 15l-6-6-6 6"
      fill="none"
      stroke="currentColor"
      stroke-width="2"
      stroke-linecap="round"
      stroke-linejoin="round"
    />
  </symbol>

  <!-- ═══════════════════════════════════════════════════════════════════════
       MENU HAMBURGER - Mobile menu toggle
       Three-line premium hamburger
       ═══════════════════════════════════════════════════════════════════════ -->
  <symbol id="header-menu" viewBox="0 0 24 24">
    <title>Menu</title>
    <!-- Lines with rounded caps -->
    <line
      x1="3" y1="6" x2="21" y2="6"
      stroke="currentColor"
      stroke-width="2"
      stroke-linecap="round"
    />
    <line
      x1="3" y1="12" x2="21" y2="12"
      stroke="currentColor"
      stroke-width="2"
      stroke-linecap="round"
    />
    <line
      x1="3" y1="18" x2="21" y2="18"
      stroke="currentColor"
      stroke-width="2"
      stroke-linecap="round"
    />
    <!-- Subtle depth hints -->
    <line
      x1="3" y1="6.3" x2="21" y2="6.3"
      stroke="currentColor"
      stroke-width="0.3"
      opacity="0.15"
    />
    <line
      x1="3" y1="12.3" x2="21" y2="12.3"
      stroke="currentColor"
      stroke-width="0.3"
      opacity="0.15"
    />
  </symbol>

  <!-- ═══════════════════════════════════════════════════════════════════════
       CLOSE - Close button
       Premium X with subtle background
       ═══════════════════════════════════════════════════════════════════════ -->
  <symbol id="header-close" viewBox="0 0 24 24">
    <title>Cerrar</title>
    <!-- Subtle circle background -->
    <circle cx="12" cy="12" r="10" fill="currentColor" opacity="0.04"/>
    <!-- X mark -->
    <path
      d="M18 6L6 18M6 6l12 12"
      stroke="currentColor"
      stroke-width="2"
      stroke-linecap="round"
    />
  </symbol>

  <!-- ═══════════════════════════════════════════════════════════════════════
       PLUS - Add/Publish button
       Clean plus icon
       ═══════════════════════════════════════════════════════════════════════ -->
  <symbol id="header-plus" viewBox="0 0 24 24">
    <title>Agregar</title>
    <line
      x1="12" y1="5" x2="12" y2="19"
      stroke="currentColor"
      stroke-width="2"
      stroke-linecap="round"
    />
    <line
      x1="5" y1="12" x2="19" y2="12"
      stroke="currentColor"
      stroke-width="2"
      stroke-linecap="round"
    />
  </symbol>

  <!-- PLUS CIRCLE -->
  <symbol id="header-plus-circle" viewBox="0 0 24 24">
    <title>Agregar</title>
    <circle
      cx="12"
      cy="12"
      r="10"
      fill="none"
      stroke="currentColor"
      stroke-width="1.75"
    />
    <circle cx="12" cy="12" r="8.5" fill="currentColor" opacity="0.04"/>
    <line
      x1="12" y1="8" x2="12" y2="16"
      stroke="currentColor"
      stroke-width="2"
      stroke-linecap="round"
    />
    <line
      x1="8" y1="12" x2="16" y2="12"
      stroke="currentColor"
      stroke-width="2"
      stroke-linecap="round"
    />
  </symbol>

  <!-- ═══════════════════════════════════════════════════════════════════════
       PUBLISH-CAR - Publicar auto
       Premium car with plus badge - perfect for "Publicar auto" CTA
       ═══════════════════════════════════════════════════════════════════════ -->
  <symbol id="header-publish-car" viewBox="0 0 24 24">
    <title>Publicar auto</title>
    <!-- Car body silhouette -->
    <path
      d="M2 14h16v3a1 1 0 0 1-1 1H3a1 1 0 0 1-1-1v-3z"
      fill="none"
      stroke="currentColor"
      stroke-width="1.5"
      stroke-linejoin="round"
    />
    <!-- Roof -->
    <path
      d="M4 14l1.5-4h9l1.5 4"
      fill="none"
      stroke="currentColor"
      stroke-width="1.5"
      stroke-linecap="round"
      stroke-linejoin="round"
    />
    <!-- Windows glass effect -->
    <path
      d="M5.8 14l1.2-3.2h6l1.2 3.2"
      fill="currentColor"
      opacity="0.06"
    />
    <!-- Front wheel -->
    <circle cx="5.5" cy="18" r="1.8" fill="none" stroke="currentColor" stroke-width="1.5"/>
    <circle cx="5.5" cy="18" r="0.6" fill="currentColor"/>
    <!-- Rear wheel -->
    <circle cx="14.5" cy="18" r="1.8" fill="none" stroke="currentColor" stroke-width="1.5"/>
    <circle cx="14.5" cy="18" r="0.6" fill="currentColor"/>

    <!-- Plus badge (top-right) -->
    <g transform="translate(17, 7)">
      <!-- Badge circle with gradient feel -->
      <circle cx="0" cy="0" r="5" fill="currentColor"/>
      <circle cx="0" cy="0" r="4.2" fill="none" stroke="white" stroke-width="0.3" opacity="0.3"/>
      <!-- Plus sign -->
      <line x1="0" y1="-2.2" x2="0" y2="2.2" stroke="white" stroke-width="1.5" stroke-linecap="round"/>
      <line x1="-2.2" y1="0" x2="2.2" y2="0" stroke="white" stroke-width="1.5" stroke-linecap="round"/>
    </g>
  </symbol>

  <!-- PUBLISH-CAR ACTIVE -->
  <symbol id="header-publish-car-active" viewBox="0 0 24 24">
    <title>Publicar auto</title>
    <!-- Car body filled -->
    <path
      d="M2 14h16v3a1 1 0 0 1-1 1H3a1 1 0 0 1-1-1v-3z"
      fill="url(#headerBlueGrad)"
      stroke="#3B82F6"
      stroke-width="1"
    />
    <!-- Roof filled -->
    <path
      d="M4 14l1.5-4h9l1.5 4"
      fill="url(#headerBlueGrad)"
    />
    <!-- Windows -->
    <path
      d="M5.8 14l1.2-3.2h6l1.2 3.2"
      fill="#DBEAFE"
      opacity="0.8"
    />
    <!-- Wheels -->
    <circle cx="5.5" cy="18" r="1.8" fill="#1E40AF"/>
    <circle cx="5.5" cy="18" r="0.6" fill="white"/>
    <circle cx="14.5" cy="18" r="1.8" fill="#1E40AF"/>
    <circle cx="14.5" cy="18" r="0.6" fill="white"/>

    <!-- Plus badge -->
    <g transform="translate(17, 7)">
      <circle cx="0" cy="0" r="5" fill="#10B981"/>
      <circle cx="0" cy="0" r="4.2" fill="none" stroke="white" stroke-width="0.3" opacity="0.4"/>
      <line x1="0" y1="-2.2" x2="0" y2="2.2" stroke="white" stroke-width="1.5" stroke-linecap="round"/>
      <line x1="-2.2" y1="0" x2="2.2" y2="0" stroke="white" stroke-width="1.5" stroke-linecap="round"/>
    </g>
  </symbol>

  <!-- ═══════════════════════════════════════════════════════════════════════
       CTA ICONS - RADIOACTIVE YELLOW PREMIUM EDITION
       Ultra-premium icons for main CTAs with neon yellow glow effect
       ═══════════════════════════════════════════════════════════════════════ -->

  <!-- CTA-SEARCH: Buscar autos - HIGH CONTRAST Premium Edition -->
  <symbol id="header-cta-search" viewBox="0 0 24 24">
    <title>Buscar autos</title>

    <!-- === GLOW BACKGROUND === -->
    <circle cx="10" cy="10" r="10" fill="#0066CC" opacity="0.15"/>

    <!-- === MAIN LENS === -->
    <!-- Outer ring shadow -->
    <circle cx="10.4" cy="10.4" r="7.2" fill="#003366" opacity="0.3"/>

    <!-- Main lens - BOLD BLUE -->
    <circle
      cx="10"
      cy="10"
      r="7"
      fill="#0077CC"
      stroke="#004488"
      stroke-width="2.5"
    />

    <!-- Inner gradient overlay -->
    <circle cx="10" cy="10" r="6" fill="url(#ctaLensInner)"/>

    <!-- Glass highlight (top arc) -->
    <path
      d="M5 8 Q7 4 12 5"
      fill="none"
      stroke="white"
      stroke-width="1.5"
      stroke-linecap="round"
      opacity="0.6"
    />

    <!-- Inner shine spot -->
    <ellipse cx="7" cy="7" rx="2.5" ry="1.5" fill="white" opacity="0.35" transform="rotate(-30 7 7)"/>

    <!-- === CAR ICON (Inside lens) - HIGH CONTRAST === -->
    <g transform="translate(5, 6.5) scale(0.5)">
      <!-- Car body - WHITE for max contrast -->
      <path
        d="M0 7h12v3.5a1 1 0 0 1-1 1H1a1 1 0 0 1-1-1V7z"
        fill="white"
      />
      <!-- Roof -->
      <path
        d="M1.5 7 L3 3h6L10.5 7"
        fill="white"
      />
      <!-- Windows - blue glass -->
      <path
        d="M2.5 6.5 L3.5 3.5h5l1 3"
        fill="#004488"
      />
      <!-- Window divider -->
      <line x1="6" y1="3.8" x2="6" y2="6.5" stroke="white" stroke-width="0.4"/>
      <!-- Front wheel -->
      <circle cx="2.5" cy="11" r="1.5" fill="#003366"/>
      <circle cx="2.5" cy="11" r="0.8" fill="#0077CC"/>
      <!-- Rear wheel -->
      <circle cx="9.5" cy="11" r="1.5" fill="#003366"/>
      <circle cx="9.5" cy="11" r="0.8" fill="#0077CC"/>
      <!-- Headlight -->
      <rect x="10.5" y="7.5" width="1.2" height="0.8" rx="0.3" fill="#FFD700"/>
    </g>

    <!-- === HANDLE - BOLD === -->
    <!-- Handle shadow -->
    <line
      x1="16"
      y1="16.3"
      x2="22.5"
      y2="22.8"
      stroke="#003366"
      stroke-width="4"
      stroke-linecap="round"
      opacity="0.4"
    />

    <!-- Handle body -->
    <line
      x1="15.5"
      y1="15.5"
      x2="22"
      y2="22"
      stroke="#0066CC"
      stroke-width="3.5"
      stroke-linecap="round"
    />

    <!-- Handle highlight -->
    <line
      x1="16"
      y1="15.3"
      x2="21"
      y2="20.3"
      stroke="white"
      stroke-width="1.2"
      stroke-linecap="round"
      opacity="0.5"
    />

    <!-- Handle end cap -->
    <circle cx="21.5" cy="21.5" r="1.8" fill="#004488"/>
    <circle cx="21.5" cy="21.5" r="1" fill="#0077CC"/>
  </symbol>

  <!-- CTA-PUBLISH: Publicar auto - HIGH CONTRAST Gold Edition -->
  <symbol id="header-cta-publish" viewBox="0 0 24 24">
    <title>Publicar auto</title>

    <!-- === GLOW BACKGROUND === -->
    <ellipse cx="9" cy="14" rx="11" ry="7" fill="#FF8C00" opacity="0.12"/>

    <!-- === CAR BODY - VIBRANT ORANGE/GOLD === -->
    <!-- Shadow -->
    <path
      d="M1.4 13.4h16v4a1.5 1.5 0 0 1-1.5 1.5h-13A1.5 1.5 0 0 1 1.4 17.4v-4z"
      fill="#8B4513"
      opacity="0.3"
    />

    <!-- Main body -->
    <path
      d="M1 13h16v4a1.5 1.5 0 0 1-1.5 1.5h-13A1.5 1.5 0 0 1 1 17v-4z"
      fill="#FF8C00"
      stroke="#CC6600"
      stroke-width="1"
    />

    <!-- Roof -->
    <path
      d="M3.5 13l2-5h7l2 5"
      fill="#FFA500"
      stroke="#CC6600"
      stroke-width="0.5"
    />

    <!-- Body gradient overlay -->
    <path
      d="M1 13h16v4a1.5 1.5 0 0 1-1.5 1.5h-13A1.5 1.5 0 0 1 1 17v-4z"
      fill="url(#ctaPublishInner)"
    />

    <!-- Windows - DARK for contrast -->
    <path
      d="M5.2 12.8l1.5-3.8h4.6l1.5 3.8"
      fill="#4A2500"
    />

    <!-- Window highlight -->
    <path
      d="M6 12l1-2.5h2.5"
      fill="none"
      stroke="white"
      stroke-width="0.5"
      opacity="0.4"
    />

    <!-- Window divider -->
    <line x1="9" y1="9.2" x2="9" y2="12.8" stroke="#FF8C00" stroke-width="0.6"/>

    <!-- Front wheel -->
    <circle cx="5" cy="18" r="2.3" fill="#4A2500"/>
    <circle cx="5" cy="18" r="1.6" fill="#CC6600"/>
    <circle cx="5" cy="18" r="0.9" fill="#4A2500"/>
    <circle cx="5" cy="18" r="0.4" fill="#FFD700"/>

    <!-- Rear wheel -->
    <circle cx="13" cy="18" r="2.3" fill="#4A2500"/>
    <circle cx="13" cy="18" r="1.6" fill="#CC6600"/>
    <circle cx="13" cy="18" r="0.9" fill="#4A2500"/>
    <circle cx="13" cy="18" r="0.4" fill="#FFD700"/>

    <!-- Headlight -->
    <rect x="15.5" y="14" width="1.3" height="1.2" rx="0.3" fill="#FFFACD"/>
    <rect x="15.7" y="14.2" width="0.6" height="0.6" rx="0.2" fill="white"/>

    <!-- Body shine -->
    <path
      d="M3 13.5 Q6 12 10 12.5"
      fill="none"
      stroke="white"
      stroke-width="0.8"
      opacity="0.5"
    />

    <!-- === PLUS BADGE - GREEN HIGH CONTRAST === -->
    <g transform="translate(18, 5)">
      <!-- Shadow -->
      <circle cx="0.3" cy="0.3" r="5" fill="#004400" opacity="0.3"/>
      <!-- Main badge -->
      <circle cx="0" cy="0" r="5" fill="#00AA00" stroke="#006600" stroke-width="1.5"/>
      <!-- Inner highlight -->
      <circle cx="-1" cy="-1" r="2" fill="white" opacity="0.2"/>
      <!-- Plus sign - WHITE for max contrast -->
      <line x1="0" y1="-2.5" x2="0" y2="2.5" stroke="white" stroke-width="2.5" stroke-linecap="round"/>
      <line x1="-2.5" y1="0" x2="2.5" y2="0" stroke="white" stroke-width="2.5" stroke-linecap="round"/>
    </g>

    <!-- Unused but kept for structure -->
    <path
      d="M3 13 Q5 11.5 8 12"
      fill="none"
      stroke="#FEF9C3"
      stroke-width="0.8"
      opacity="0.5"
    />
  </symbol>

  <!-- ═══════════════════════════════════════════════════════════════════════
       FLAG ARGENTINA - Language indicator
       Argentine flag colors
       ═══════════════════════════════════════════════════════════════════════ -->
  <symbol id="header-flag-ar" viewBox="0 0 24 24">
    <title>Argentina</title>
    <!-- Flag background with rounded corners -->
    <rect x="2" y="5" width="20" height="14" rx="2" fill="#75AADB"/>
    <!-- White stripe -->
    <rect x="2" y="9.5" width="20" height="5" fill="white"/>
    <!-- Sun of May -->
    <circle cx="12" cy="12" r="2" fill="#FCBF49"/>
    <circle cx="12" cy="12" r="1.3" fill="#F9A825"/>
    <!-- Sun rays (simplified) -->
    <g stroke="#FCBF49" stroke-width="0.6" stroke-linecap="round">
      <line x1="12" y1="8" x2="12" y2="9"/>
      <line x1="12" y1="15" x2="12" y2="16"/>
      <line x1="8" y1="12" x2="9" y2="12"/>
      <line x1="15" y1="12" x2="16" y2="12"/>
      <line x1="9.2" y1="9.2" x2="9.9" y2="9.9"/>
      <line x1="14.1" y1="14.1" x2="14.8" y2="14.8"/>
      <line x1="14.1" y1="9.9" x2="14.8" y2="9.2"/>
      <line x1="9.2" y1="14.8" x2="9.9" y2="14.1"/>
    </g>
    <!-- Rounded border -->
    <rect x="2" y="5" width="20" height="14" rx="2" fill="none" stroke="currentColor" stroke-width="0.5" opacity="0.2"/>
  </symbol>

  <!-- ═══════════════════════════════════════════════════════════════════════
       CAR - Quick search icon
       Compact car silhouette
       ═══════════════════════════════════════════════════════════════════════ -->
  <symbol id="header-car" viewBox="0 0 24 24">
    <title>Auto</title>
    <!-- Car body -->
    <path
      d="M3 14h18v3a1 1 0 0 1-1 1H4a1 1 0 0 1-1-1v-3z"
      fill="none"
      stroke="currentColor"
      stroke-width="1.75"
    />
    <!-- Roof -->
    <path
      d="M5 14l2-5h10l2 5"
      fill="none"
      stroke="currentColor"
      stroke-width="1.75"
      stroke-linecap="round"
      stroke-linejoin="round"
    />
    <!-- Windows -->
    <path
      d="M7.5 14l1.5-4h6l1.5 4"
      fill="currentColor"
      opacity="0.08"
    />
    <!-- Front wheel -->
    <circle cx="7" cy="18" r="2" fill="none" stroke="currentColor" stroke-width="1.5"/>
    <circle cx="7" cy="18" r="0.8" fill="currentColor"/>
    <!-- Rear wheel -->
    <circle cx="17" cy="18" r="2" fill="none" stroke="currentColor" stroke-width="1.5"/>
    <circle cx="17" cy="18" r="0.8" fill="currentColor"/>
  </symbol>

</svg>
