<svg width="400" height="80" viewBox="0 0 400 80" fill="none" xmlns="http://www.w3.org/2000/svg">
  <!-- Ãcono de auto con llave -->
  <g transform="translate(10, 15)">
    <!-- Llave -->
    <path d="M15 20 L20 15 L25 20 M20 15 L20 30" stroke="#C4A77D" stroke-width="2" stroke-linecap="round" stroke-linejoin="round"/>
    <circle cx="20" cy="33" r="3" fill="#C4A77D"/>

    <!-- Auto -->
    <path d="M5 35 L8 28 L14 28 L14 25 L26 25 L26 28 L32 28 L35 35 L35 42 L33 42 L33 45 L30 45 L30 42 L10 42 L10 45 L7 45 L7 42 L5 42 Z"
          fill="none" stroke="#C4A77D" stroke-width="2" stroke-linejoin="round"/>
    <!-- Ruedas -->
    <circle cx="12" cy="42" r="3" fill="#C4A77D"/>
    <circle cx="28" cy="42" r="3" fill="#C4A77D"/>
    <!-- Ventanas -->
    <rect x="16" y="28" width="8" height="5" fill="none" stroke="#C4A77D" stroke-width="1.5"/>
  </g>

  <!-- Texto "Auto" - Gris oscuro -->
  <text x="70" y="55" font-family="'Arial', 'Helvetica', sans-serif" font-size="42" font-weight="700" fill="#2a2a2a">Auto</text>

  <!-- Texto "rentar" - Beige/Dorado -->
  <text x="185" y="55" font-family="'Arial', 'Helvetica', sans-serif" font-size="42" font-weight="700" fill="#C4A77D">rentar</text>
</svg>
