<svg xmlns="http://www.w3.org/2000/svg" viewBox="0 0 160 90" role="img" aria-labelledby="title desc">
  <title id="title">Placeholder car image</title>
  <desc id="desc">Generic car outline used while real photos load</desc>
  <rect width="160" height="90" fill="#f5f5f5" />
  <path
    d="M20 60h-6a6 6 0 0 1-6-6v-8c0-6 4-11 10-12l12-2 16-20c3-4 8-6 13-6h32c5 0 9 2 12 6l16 20 12 2c6 1 10 6 10 12v8a6 6 0 0 1-6 6h-6a16 16 0 0 0-32 0H52a16 16 0 0 0-32 0Zm0-8h8c2-7 9-12 16-12s14 5 16 12h40c2-7 9-12 16-12s14 5 16 12h8v-6c0-2-1-3-3-4l-16-2a8 8 0 0 1-5-3l-18-22c-1-2-3-3-5-3H72c-2 0-4 1-5 3L49 37a8 8 0 0 1-5 3l-16 2c-2 1-3 2-3 4Z"
    fill="#d1d5db"
  />
  <circle cx="40" cy="60" r="10" fill="#9ca3af" />
  <circle cx="120" cy="60" r="10" fill="#9ca3af" />
  <circle cx="40" cy="60" r="6" fill="#f5f5f5" />
  <circle cx="120" cy="60" r="6" fill="#f5f5f5" />
</svg>

