<svg role="img" viewBox="0 0 24 24" xmlns="http://www.w3.org/2000/svg" fill="#231F20">
  <title>Peugeot</title>
  <path d="M12.0001 0c3.499 0 7.1308.2987 10.8171.9349.055 1.4778.1175 3.762.0126 5.7004-.2349 4.3217-1.1861 7.676-2.9943 10.5564-1.8026 2.872-4.5938 5.3416-7.8354 6.8083-3.2416-1.4667-6.0331-3.9362-7.8356-6.8083-1.808-2.8804-2.7594-6.2348-2.9941-10.5564-.1053-1.9383-.0427-4.2226.0124-5.7004C4.8691.2987 8.5011 0 12.0001 0zm0 .4163c-3.4494 0-6.9514.2933-10.4139.8722-.076 2.1923-.076 3.9367-.0005 5.3243.2305 4.248 1.1619 7.5394 2.9309 10.3575 1.7688 2.8179 4.421 5.1457 7.4835 6.5718 3.0622-1.4261 5.7147-3.7539 7.4835-6.5718 1.769-2.8182 2.7001-6.1095 2.9309-10.3575.0755-1.3876.0755-3.132-.0005-5.3243C18.9515.7096 15.4493.4163 12.0001.4163z"/>
</svg>
